<svg width="30" height="25" viewBox="0 0 30 25" fill="none" xmlns="http://www.w3.org/2000/svg">
<g clip-path="url(#clip0_30_6318)">
<path d="M10.3184 0.0655792L0.622465 5.18286C0.312422 5.34571 0.140176 5.6902 0.193415 6.03783C0.331212 6.96169 0.616201 8.13923 1.20497 9.41072C1.62776 10.3221 2.11005 11.0737 2.55789 11.6687C2.79903 11.9913 3.23748 12.0915 3.5945 11.9067L6.04039 10.6509L5.92139 22.5421C5.91825 22.8804 6.15 23.1716 6.47884 23.2499C8.50195 23.7166 11.0167 24.1143 13.9136 24.1707C17.418 24.2364 20.4151 23.7823 22.7201 23.2499C23.0458 23.1748 23.2775 22.8866 23.2775 22.5515V10.4066L25.5512 11.9537C25.9207 12.2042 26.4187 12.1166 26.6818 11.7564C27.0983 11.1864 27.5305 10.51 27.9282 9.72389C28.5702 8.45554 28.9429 7.2686 29.1652 6.29463C29.2467 5.93448 29.0838 5.56493 28.7612 5.38642L19.1123 0.0687109C18.9056 -0.0471638 18.6488 -0.0158463 18.4766 0.150136C17.8502 0.742037 16.2311 2.00726 14.0389 1.72541C12.5012 1.52811 11.4614 0.670007 10.9635 0.165795C10.7944 -0.00645105 10.5345 -0.0471638 10.3215 0.0655792H10.3184Z" fill="#A3E96C"/>
<path d="M9.34448 0.57959C9.73908 0.983586 11.5148 2.70918 14.349 2.84071C17.606 2.99104 19.7137 0.914687 20.0425 0.57959" stroke="#12332A" stroke-width="0.313175" stroke-linejoin="round"/>
<path d="M1.34595 4.8042C1.4493 5.65604 1.65286 6.7083 2.07251 7.86392C2.67381 9.52688 3.48806 10.7827 4.1426 11.6283" stroke="#12332A" stroke-width="0.313175" stroke-linejoin="round"/>
<path d="M27.9627 4.94482C27.7904 5.9188 27.4772 7.1715 26.8728 8.5432C26.3028 9.83662 25.6452 10.8638 25.0752 11.628" stroke="#12332A" stroke-width="0.313175" stroke-linejoin="round"/>
<path d="M17.9474 5.6748C17.5528 5.6748 17.2052 5.95353 17.1363 6.34187C16.9765 7.23755 17.2052 8.07372 17.7595 8.54349C17.8628 8.63118 18.3983 9.06649 19.1249 8.9788C19.7575 8.90364 20.1427 8.47459 20.3025 8.29608C20.8035 7.73863 20.9319 7.04338 20.9382 6.50472C20.9445 6.04748 20.5686 5.67794 20.1114 5.67794H17.9505L17.9474 5.6748Z" stroke="#12332A" stroke-width="0.313175" stroke-linejoin="round"/>
</g>
<defs>
<clipPath id="clip0_30_6318">
<rect width="29" height="24.174" fill="white" transform="translate(0.184082)"/>
</clipPath>
</defs>
</svg>
