<svg width="27" height="23" viewBox="0 0 27 23" fill="none" xmlns="http://www.w3.org/2000/svg">
<g clip-path="url(#clip0_30_6344)">
<path d="M4.4578 2.16504C3.68046 4.45381 2.9381 6.9517 2.28513 9.64711C1.2435 13.9768 0.633289 17.9967 0.29126 21.575C2.06748 22.1133 4.2829 22.6245 6.86366 22.8608C8.88863 23.0467 10.7076 23.0273 12.2623 22.9189C12.5343 20.1305 12.8103 17.346 13.0824 14.5577L14.023 22.9189C16.0401 23.0234 18.5432 22.9615 21.3571 22.4503C22.9779 22.1559 24.4315 21.7609 25.6986 21.3388C25.3721 18.0083 24.8241 14.3137 23.9379 10.3481C23.2772 7.38545 22.5115 4.65519 21.7069 2.16504H4.4578Z" fill="#19C16A"/>
<path d="M4.98637 0H21.3571L21.7108 2.16484C20.1795 2.42044 18.5315 2.62569 16.7825 2.74962C12.0874 3.08267 7.91305 2.738 4.46167 2.16484C4.63657 1.44452 4.81536 0.724196 4.99026 0H4.98637Z" fill="#ECF8F0"/>
<path d="M8.9118 2.64893V2.71089C8.88459 3.27243 8.72135 4.67435 7.6253 5.84778C5.8141 7.79575 3.12451 7.34652 2.93018 7.30779" stroke="#12332A" stroke-width="0.238961" stroke-linecap="round" stroke-linejoin="round"/>
<path d="M23.2109 7.34261C22.4647 7.42781 20.3037 7.49365 18.7723 5.84775C17.6685 4.65883 17.5092 3.24529 17.4858 2.69536V2.64502" stroke="#12332A" stroke-width="0.238961" stroke-linecap="round" stroke-linejoin="round"/>
<path d="M11.5549 12.8032L13.1252 14.3252L15.9586 13.8566" stroke="#12332A" stroke-width="0.238961" stroke-linecap="round" stroke-linejoin="round"/>
<path d="M12.4254 21.226C10.7425 21.2803 8.76416 21.2222 6.56817 20.9317C4.22061 20.6219 2.1801 20.1223 0.501045 19.5995L0.466064 19.5879" stroke="#12332A" stroke-width="0.238961" stroke-linecap="round" stroke-linejoin="round"/>
<path d="M13.8479 21.4003C15.5114 21.4429 17.4586 21.3848 19.6158 21.1021C21.8895 20.8 23.8756 20.3198 25.5313 19.8125" stroke="#12332A" stroke-width="0.238961" stroke-linecap="round" stroke-linejoin="round"/>
<path d="M11.7529 8.25681C12.0405 7.18407 12.1027 6.3011 12.1027 5.67372C12.1027 4.27567 11.7918 3.68315 12.2193 2.86214C12.4875 2.34707 12.9112 2.01014 13.4553 1.57252C14.0033 1.13491 14.5164 0.848328 14.8973 0.662438C15.1033 0.584984 15.317 0.604348 15.4414 0.724402C15.6435 0.92191 15.4958 1.28982 15.488 1.30918C15.317 1.71194 14.6563 1.90558 13.8401 1.83587" stroke="#12332A" stroke-width="0.238961" stroke-linecap="round" stroke-linejoin="round"/>
<path d="M15.3054 8.25681C15.0178 7.18407 14.9556 6.3011 14.9556 5.67372C14.9556 4.27567 15.2666 3.68315 14.839 2.86214C14.5708 2.34707 14.1472 2.01014 13.6031 1.57252C13.055 1.13491 12.542 0.848328 12.1611 0.662438C11.9551 0.584984 11.7413 0.604348 11.617 0.724402C11.4148 0.92191 11.5625 1.28982 11.5703 1.30918C11.7646 1.77003 12.5925 1.80101 13.2183 1.83587C13.4826 1.85136 13.7002 1.84361 13.8363 1.83587" stroke="#12332A" stroke-width="0.238961" stroke-linecap="round" stroke-linejoin="round"/>
<path d="M4.5083 2.38574C7.34947 2.61036 10.4239 2.74203 13.7081 2.72654C16.5765 2.71105 19.2816 2.58712 21.8041 2.38574" stroke="#12332A" stroke-width="0.238961" stroke-linecap="round" stroke-linejoin="round"/>
</g>
<defs>
<clipPath id="clip0_30_6344">
<rect width="26.2857" height="23" fill="white" transform="translate(0.29126)"/>
</clipPath>
</defs>
</svg>
