<svg width="18" height="28" viewBox="0 0 18 28" fill="none" xmlns="http://www.w3.org/2000/svg">
<g clip-path="url(#clip0_30_6369)">
<path d="M4.55183 0.160856L2.90218 1.03382C3.24097 1.67637 3.86467 3.08143 3.70905 4.89031C3.63243 5.78703 3.38702 6.51747 3.15956 7.0365C3.62405 8.83113 4.08854 10.6258 4.55303 12.4204C3.6037 13.7613 2.54304 15.5441 1.69307 17.7686C0.205031 21.6584 0.0338407 25.1396 0.115246 27.3725C2.33593 27.7014 4.8583 27.9426 7.63206 27.9912C11.2318 28.053 14.4438 27.7751 17.166 27.3725C17.2522 25.3165 17.1313 22.2154 15.9929 18.6772C15.1177 15.9574 13.9182 13.8373 12.9126 12.3467C13.3532 10.5034 13.7925 8.6601 14.2331 6.81678C14.0164 6.293 13.7805 5.54711 13.7195 4.63377C13.6082 2.96741 14.1361 1.67162 14.4533 1.03263C13.9158 0.741645 13.3783 0.450657 12.8396 0.159668C12.0579 1.64312 10.5447 2.60516 8.87947 2.6693C7.08856 2.73818 5.3982 1.75832 4.55303 0.159668L4.55183 0.160856Z" fill="#A7CB69"/>
<path d="M8.65927 2.70752C8.71194 3.2123 8.72272 3.96293 8.47611 4.81808C8.00084 6.46068 6.88032 7.4156 6.42302 7.76478C6.36196 9.40145 6.30091 11.0393 6.23986 12.676C6.00522 13.5477 5.78375 14.4456 5.58024 15.3685C4.60098 19.7998 4.20473 23.9556 4.14966 27.7017" stroke="#12332A" stroke-width="0.275631" stroke-miterlimit="10"/>
<path d="M4.55188 12.5298C5.82204 12.7329 7.3436 12.8813 9.06149 12.8576C10.4741 12.8374 11.7431 12.7056 12.8385 12.5298" stroke="#12332A" stroke-width="0.275631" stroke-miterlimit="10"/>
<path d="M7.66682 8.82975C7.91476 8.82975 8.11575 8.63034 8.11575 8.38436C8.11575 8.13837 7.91476 7.93896 7.66682 7.93896C7.41889 7.93896 7.2179 8.13837 7.2179 8.38436C7.2179 8.63034 7.41889 8.82975 7.66682 8.82975Z" stroke="#12332A" stroke-width="0.275631" stroke-miterlimit="10"/>
<path d="M7.66682 11.4323C7.91476 11.4323 8.11575 11.2329 8.11575 10.9869C8.11575 10.7409 7.91476 10.5415 7.66682 10.5415C7.41889 10.5415 7.2179 10.7409 7.2179 10.9869C7.2179 11.2329 7.41889 11.4323 7.66682 11.4323Z" stroke="#12332A" stroke-width="0.275631" stroke-miterlimit="10"/>
</g>
<defs>
<clipPath id="clip0_30_6369">
<rect width="17.0891" height="27.8387" fill="white" transform="translate(0.0983887 0.161133)"/>
</clipPath>
</defs>
</svg>
