<svg width="32" height="19" viewBox="0 0 32 19" fill="none" xmlns="http://www.w3.org/2000/svg">
<g clip-path="url(#clip0_30_6428)">
<path d="M31.2647 9.83554V12.2309C31.2647 12.8831 30.923 13.4882 30.3617 13.8237C28.1827 15.1217 25.1696 16.3883 21.633 16.2002C19.0495 16.0623 19.1718 15.3098 16.3876 15.2377C11.8258 15.1154 9.45546 17.0875 5.84671 15.824C4.96569 15.5167 4.30414 15.1185 3.92163 14.8614C3.96239 14.1435 4.04704 13.0837 4.22576 11.8014C5.0378 12.1275 5.95645 12.4159 6.97229 12.6134C9.96024 13.1997 10.8256 12.419 15.3749 12.5162C19.4069 12.5978 19.6703 13.2311 23.0251 12.974C26.4583 12.7106 28.1701 11.8986 29.07 11.3844C29.9447 10.8859 30.6502 10.3309 31.2114 9.81046C31.2333 9.79165 31.2647 9.80732 31.2647 9.83554Z" fill="#199659"/>
<path d="M31.2647 9.61929V9.76038C30.6972 10.2934 29.9729 10.8703 29.0699 11.3845C28.1701 11.8987 26.4582 12.7107 23.025 12.9741C19.6703 13.2312 19.4069 12.5978 15.3749 12.5163C10.8255 12.4191 9.9602 13.1998 6.97224 12.6135C5.9564 12.416 5.03775 12.1275 4.22571 11.8015C4.24766 11.6478 4.2696 11.4911 4.29468 11.3312C4.87472 7.57193 5.54567 7.04206 5.42026 5.01665C5.24782 2.28579 3.8965 1.16335 4.56432 0.360707C5.14749 -0.341604 6.49254 0.141235 9.26416 0.479848C11.5623 0.758891 13.4906 0.774568 14.8356 0.736944C15.378 2.21054 16.56 4.65609 19.0651 6.40873C19.896 6.99189 21.865 8.3683 24.5175 8.49057C26.3328 8.57523 27.8785 8.04536 29.9792 8.92325C30.5467 9.16153 30.9856 9.42803 31.2647 9.61929Z" fill="#ADF475"/>
<path d="M4.05029 13.2656L4.25722 13.322C5.42983 13.8488 7.22009 14.4758 9.42422 14.5103C11.6221 14.5448 12.5627 13.9648 14.6947 13.6826C18.2972 13.206 19.6892 14.3222 22.4985 14.457C24.5991 14.5605 27.5526 14.1153 31.2648 11.6729" stroke="#12332A" stroke-width="0.313531" stroke-miterlimit="10"/>
<path d="M13.3528 4.01972C13.751 4.01659 14.5285 3.95388 15.3657 3.50553C15.5945 3.38325 15.7983 3.2453 15.9802 3.10107" stroke="#12332A" stroke-width="0.313531" stroke-miterlimit="10" stroke-linecap="round"/>
<path d="M14.9204 6.01358C15.3092 5.93206 16.0617 5.71573 16.7922 5.11061C16.9396 4.98834 17.0744 4.85979 17.1904 4.73438" stroke="#12332A" stroke-width="0.313531" stroke-miterlimit="10" stroke-linecap="round"/>
<path d="M16.7765 7.68163C17.1496 7.53741 17.8582 7.2082 18.4852 6.49021C18.5762 6.38361 18.6608 6.27701 18.7392 6.17041" stroke="#12332A" stroke-width="0.313531" stroke-miterlimit="10" stroke-linecap="round"/>
<path d="M19.7676 8.87013C20.0999 8.70396 20.705 8.34653 21.2318 7.67871" stroke="#12332A" stroke-width="0.313531" stroke-miterlimit="10" stroke-linecap="round"/>
<path d="M22.7963 9.92955C23.1506 9.75084 23.8246 9.35265 24.3796 8.58136L24.4454 8.4873" stroke="#12332A" stroke-width="0.313531" stroke-miterlimit="10" stroke-linecap="round"/>
<path d="M27.7908 12.589V14.9843C27.7908 15.6365 27.4491 16.2416 26.8879 16.5771C24.7088 17.8751 21.6958 19.1418 18.1591 18.9536C15.5756 18.8157 15.6979 18.0632 12.9138 17.9911C8.35188 17.8688 5.98158 19.8409 2.37284 18.5774C1.49181 18.2701 0.830262 17.872 0.447754 17.6149C0.488513 16.8969 0.573166 15.8371 0.751879 14.5548C1.56393 14.8809 2.48257 15.1693 3.49841 15.3668C6.48637 15.9531 7.35171 15.1725 11.9011 15.2697C15.9331 15.3512 16.1964 15.9845 19.5512 15.7274C22.9844 15.464 24.6963 14.652 25.5961 14.1378C26.4709 13.6393 27.1763 13.0843 27.7375 12.5639C27.7595 12.5451 27.7908 12.5607 27.7908 12.589Z" fill="#29A267"/>
<path d="M27.7908 12.3693V12.5104C27.2233 13.0434 26.499 13.6203 25.5961 14.1345C24.6962 14.6487 22.9843 15.4607 19.5512 15.7241C16.1964 15.9812 15.933 15.3478 11.901 15.2663C7.35167 15.1691 6.48632 15.9498 3.49837 15.3635C2.48252 15.166 1.56388 14.8775 0.751831 14.5515C0.773778 14.3978 0.795725 14.2411 0.820808 14.0812C1.40084 10.3219 2.0718 9.79206 1.94639 7.76665C1.77394 5.03579 0.422623 3.91335 1.09044 3.11071C1.67361 2.4084 3.01866 2.89123 5.79028 3.22985C8.08846 3.50889 10.0167 3.52457 11.3617 3.48694C11.9041 4.96054 13.0862 7.40609 15.5913 9.15873C16.4221 9.74189 18.3911 11.1183 21.0436 11.2406C22.8589 11.3252 24.4046 10.7954 26.5053 11.6732C27.0728 11.9115 27.5117 12.178 27.7908 12.3693Z" fill="#BFFA91"/>
<path d="M0.576294 16.0156L0.783225 16.072C1.95583 16.5988 3.7461 17.2258 5.95022 17.2603C8.14808 17.2948 9.08867 16.7148 11.2207 16.4326C14.8232 15.956 16.2152 17.0722 19.0245 17.207C21.1251 17.3105 24.0786 16.8653 27.7908 14.4229" stroke="#12332A" stroke-width="0.313531" stroke-miterlimit="10"/>
<path d="M9.87866 6.76923C10.2768 6.7661 11.0544 6.70339 11.8915 6.25504C12.1204 6.13276 12.3242 5.99481 12.5061 5.85059" stroke="#12332A" stroke-width="0.313531" stroke-miterlimit="10" stroke-linecap="round"/>
<path d="M11.4465 8.76358C11.8353 8.68206 12.5878 8.46573 13.3183 7.86061C13.4657 7.73834 13.6005 7.60979 13.7165 7.48438" stroke="#12332A" stroke-width="0.313531" stroke-miterlimit="10" stroke-linecap="round"/>
<path d="M13.3025 10.4316C13.6756 10.2874 14.3842 9.9582 15.0112 9.24021C15.1022 9.13361 15.1868 9.02701 15.2652 8.92041" stroke="#12332A" stroke-width="0.313531" stroke-miterlimit="10" stroke-linecap="round"/>
<path d="M16.2936 11.6196C16.6259 11.4535 17.231 11.096 17.7578 10.4282" stroke="#12332A" stroke-width="0.313531" stroke-miterlimit="10" stroke-linecap="round"/>
<path d="M19.3223 12.6795C19.6766 12.5008 20.3506 12.1027 20.9056 11.3314L20.9714 11.2373" stroke="#12332A" stroke-width="0.313531" stroke-miterlimit="10" stroke-linecap="round"/>
</g>
<defs>
<clipPath id="clip0_30_6428">
<rect width="30.9048" height="19" fill="white" transform="translate(0.447754)"/>
</clipPath>
</defs>
</svg>
