<svg width="20" height="21" viewBox="0 0 20 21" fill="none" xmlns="http://www.w3.org/2000/svg">
<path d="M7.91678 10.5C9.98784 10.5 11.6668 8.82107 11.6668 6.75C11.6668 4.67893 9.98784 3 7.91678 3C5.84571 3 4.16677 4.67893 4.16677 6.75C4.16677 8.82107 5.84571 10.5 7.91678 10.5Z" fill="black"/>
<path d="M7.91677 13C5.55792 13 3.46139 14.2871 2.1328 16.282C1.84174 16.719 1.69622 16.9375 1.71297 17.2166C1.72601 17.4339 1.86848 17.7 2.04214 17.8313C2.26517 18 2.57192 18 3.18541 18H12.6481C13.2616 18 13.5684 18 13.7914 17.8313C13.9651 17.7 14.1075 17.4339 14.1206 17.2166C14.1373 16.9375 13.9918 16.719 13.7008 16.282C12.3722 14.2871 10.2756 13 7.91677 13Z" fill="black"/>
<path d="M15.0001 13.6974C16.2134 14.3069 17.2536 15.285 18.0128 16.508C18.1632 16.7502 18.2383 16.8713 18.2643 17.039C18.3172 17.3798 18.0841 17.7988 17.7667 17.9336C17.6105 18 17.4348 18 17.0834 18M13.3334 10.1102C14.5682 9.49657 15.4168 8.22238 15.4168 6.75C15.4168 5.27762 14.5682 4.00343 13.3334 3.3898M11.6668 6.75C11.6668 8.82107 9.98784 10.5 7.91678 10.5C5.84571 10.5 4.16677 8.82107 4.16677 6.75C4.16677 4.67893 5.84571 3 7.91678 3C9.98784 3 11.6668 4.67893 11.6668 6.75ZM2.1328 16.282C3.46139 14.2871 5.55792 13 7.91677 13C10.2756 13 12.3722 14.2871 13.7008 16.282C13.9918 16.719 14.1373 16.9375 14.1206 17.2166C14.1075 17.4339 13.9651 17.7 13.7914 17.8313C13.5684 18 13.2616 18 12.6481 18H3.18541C2.57192 18 2.26517 18 2.04214 17.8313C1.86848 17.7 1.72601 17.4339 1.71297 17.2166C1.69622 16.9375 1.84174 16.719 2.1328 16.282Z" stroke="black" stroke-linecap="round" stroke-linejoin="round"/>
</svg>
