<svg width="24" height="25" viewBox="0 0 24 25" fill="none" xmlns="http://www.w3.org/2000/svg">
<path d="M21.6213 12.3596C21.6213 17.8048 17.207 22.2191 11.7629 22.2191V2.5C17.207 2.5 21.6213 6.91431 21.6213 12.3596Z" fill="#A3E96C"/>
<path d="M11.7619 22.2191C9.29577 19.5194 7.89399 16.0161 7.81858 12.3596M11.7619 22.2191C14.228 19.5194 15.6298 16.0161 15.7052 12.3596M11.7619 22.2191C17.2072 22.2191 21.6202 17.8048 21.6202 12.3596M11.7619 22.2191C6.78515 22.2191 2.66876 18.5304 2 13.7366M7.81858 12.3596C7.89399 8.70426 9.29577 5.19976 11.7619 2.5M7.81858 12.3596H11.7619H15.7052M7.81858 12.3596H4.39938M15.7052 12.3596C15.6298 8.70302 14.228 5.19976 11.7619 2.5M15.7052 12.3596H21.6202M21.6202 12.3596C21.6202 6.91431 17.2072 2.5 11.7619 2.5M11.7619 2.5C6.78515 2.5 2.66876 6.18868 2 10.9825" stroke="#020304" stroke-linecap="round" stroke-linejoin="round"/>
</svg>
