<svg width="24" height="25" viewBox="0 0 24 25" fill="none" xmlns="http://www.w3.org/2000/svg">
<path d="M6.80196 22.1445C6.80196 22.1445 5.76125 21.7957 4.72049 20.755C3.67973 19.7142 3.33154 18.5 3.33154 18.5L3.33163 21.621" stroke="#08100E" stroke-linecap="round" stroke-linejoin="round"/>
<path d="M14.5315 2.96491C14.5315 2.96491 15.5723 3.31365 16.613 4.3544C17.6538 5.39516 18.002 6.60938 18.002 6.60938L18.0019 3.48838" stroke="#08100E" stroke-linecap="round" stroke-linejoin="round"/>
<path d="M22.9999 23.4955C22.9999 22.7374 22.9999 22.3583 22.8947 22.0499C22.6577 21.3555 22.0463 20.812 21.2651 20.6014C20.9181 20.5078 20.4917 20.5078 19.6388 20.5078H16.5833C15.7304 20.5078 15.304 20.5078 14.957 20.6014C14.1758 20.812 13.5644 21.3555 13.3274 22.0499C13.2222 22.3583 13.2222 22.7374 13.2222 23.4955" stroke="#08100E" stroke-linecap="round" stroke-linejoin="round"/>
<circle cx="18.111" cy="14.9401" r="3.16667" fill="#A3E96C" stroke="#08100E"/>
<path d="M5.88889 10.6641C2.83333 10.6641 1 11.2752 1 13.7196H10.7778C10.7778 12.4974 10.1667 10.6641 5.88889 10.6641Z" fill="#A3E96C"/>
<path d="M10.7778 13.722C10.7778 12.9639 10.7778 12.5849 10.6725 12.2765C10.4355 11.582 9.82417 11.0386 9.04292 10.8279C8.69593 10.7344 8.26951 10.7344 7.41666 10.7344H4.36111C3.50827 10.7344 3.08184 10.7344 2.73486 10.8279C1.95361 11.0386 1.34225 11.582 1.10526 12.2765C1 12.5849 1 12.9639 1 13.722" stroke="#08100E" stroke-linecap="round" stroke-linejoin="round"/>
<circle cx="5.88883" cy="5.16667" r="3.16667" stroke="#08100E"/>
</svg>
