<svg width="23" height="23" viewBox="0 0 23 23" fill="none" xmlns="http://www.w3.org/2000/svg">
<g clip-path="url(#clip0_106_2751)">
<path d="M11.31 0.899902H20.11L22.23 6.3299L21.1 8.5099L19.82 9.4699L17.62 9.2899L16.41 8.6499L15.53 9.2099L14.02 9.7199L12.59 9.3599L11.3 8.6499L11.31 0.899902Z" fill="#A3E96C"/>
<path d="M3.23004 0.899902H19.36C19.81 0.899902 20.22 1.1799 20.38 1.5999L21.76 5.1199C22.4 6.7399 21.6 8.5699 19.98 9.2099C18.78 9.6799 17.42 9.4599 16.42 8.6499C16.13 8.8999 15.39 9.4499 14.3 9.5699C12.68 9.7499 11.53 8.8399 11.31 8.6499C11 8.8799 10.16 9.4299 8.96004 9.4699C7.56004 9.5199 6.57004 8.8599 6.28004 8.6499C5.25004 9.7099 3.68004 10.0199 2.35004 9.4399C1.79004 9.1999 1.32004 8.8099 0.970039 8.3399C0.310039 7.4599 0.260039 6.2599 0.690039 5.2499L2.23004 1.5799C2.40004 1.1699 2.80004 0.909902 3.24004 0.909902L3.23004 0.899902Z" stroke="#030405" stroke-width="0.8" stroke-linecap="round" stroke-linejoin="round"/>
<path d="M19.4901 9.47021V21.3502C19.4901 21.7002 19.2101 21.9802 18.8601 21.9802H3.75012C3.40012 21.9802 3.12012 21.7002 3.12012 21.3502V12.1602" stroke="#030405" stroke-width="0.8" stroke-miterlimit="10" stroke-linecap="round"/>
<path d="M8.72998 21.9801V21.6001" stroke="black" stroke-width="0.8" stroke-miterlimit="10"/>
<path d="M8.72998 21.6V14.63C8.72998 14.15 9.11998 13.75 9.60998 13.75H13.09C13.57 13.75 13.97 14.15 13.97 14.63V21.98" stroke="black" stroke-width="0.8" stroke-miterlimit="10" stroke-linecap="round"/>
</g>
<defs>
<clipPath id="clip0_106_2751">
<rect width="22.38" height="21.88" fill="white" transform="translate(0 0.5)"/>
</clipPath>
</defs>
</svg>
