<svg width="24" height="25" viewBox="0 0 24 25" fill="none" xmlns="http://www.w3.org/2000/svg">
<g clip-path="url(#clip0_106_2574)">
<path d="M21.9343 5.06868V7.45569H1C1 6.99832 1.2324 6.54217 1.69719 6.28135L5.23754 4.29114L10.0808 1.56913C10.4306 1.37258 10.8682 1.61858 10.8682 2.01167V3.97963H20.8155C21.4336 3.98087 21.9343 4.46791 21.9343 5.06868Z" fill="#A3E96C"/>
<path d="M1.91357 20.7933V18.4062H22.8478C22.8478 18.8636 22.6154 19.3198 22.1506 19.5806L18.6091 21.5708L13.7671 24.2928C13.4172 24.4894 12.9784 24.2434 12.9784 23.8503V21.8811H3.0323C2.41546 21.8811 1.91357 21.394 1.91357 20.7933Z" fill="#A3E96C"/>
<path d="M21.9343 5.07115V9.84518C21.9343 10.4459 21.4336 10.933 20.8168 10.933H10.8694V12.9009C10.8694 13.294 10.4318 13.54 10.082 13.3435L5.23878 10.6215L1.69843 8.63127C1.58841 8.56947 1.49076 8.49653 1.4067 8.41495C1.23735 8.25178 1.12361 8.05523 1.05933 7.84632C1.05068 7.82036 1.04451 7.79316 1.03709 7.7672C1.02473 7.71405 1.01484 7.66089 1.00866 7.6065C1.00619 7.57931 1.00371 7.55211 1.00247 7.52492C1 7.50143 1 7.47794 1 7.45569C1 6.99832 1.2324 6.54217 1.69719 6.28135L5.23754 4.29114L10.0808 1.56913C10.4306 1.37258 10.8682 1.61858 10.8682 2.01167V3.97963H20.8155C21.4336 3.98334 21.9343 4.47038 21.9343 5.07115Z" stroke="#010202" stroke-miterlimit="10"/>
<path d="M9.43135 14.9328H3.03352C2.41668 14.9328 1.91479 15.4199 1.91479 16.0206V18.4076V20.7947C1.91479 20.8701 1.92222 20.943 1.93705 21.0135C1.94571 21.0493 1.95436 21.0839 1.96548 21.1185C1.97661 21.1519 1.98896 21.1853 2.00256 21.2187C2.02481 21.2669 2.04953 21.3138 2.07672 21.3583C2.09527 21.388 2.11629 21.4177 2.13731 21.4449C2.34127 21.7106 2.66762 21.8825 3.03352 21.8825H12.9808V23.8517C12.9808 23.8727 12.9821 23.8925 12.9846 23.9122C12.9858 23.9283 12.9883 23.9431 12.992 23.958V23.9592C12.9944 23.9716 12.9969 23.9827 13.0006 23.9938C13.0019 23.9988 13.0031 24.0037 13.0056 24.0087C13.0105 24.0247 13.0167 24.0408 13.0241 24.0556C13.0303 24.0717 13.0377 24.0865 13.0476 24.1001C13.0637 24.1298 13.0834 24.157 13.1057 24.1817C13.1279 24.2077 13.1514 24.2299 13.1786 24.2497C13.2182 24.2806 13.2627 24.3053 13.3097 24.3239C13.3245 24.3301 13.3406 24.3362 13.3566 24.3399C13.3727 24.3449 13.3888 24.3486 13.4048 24.3523C13.4221 24.356 13.4395 24.3585 13.4555 24.3597C13.4728 24.361 13.4889 24.3622 13.505 24.3622C13.5272 24.3622 13.5495 24.361 13.573 24.3585C13.6162 24.3523 13.6607 24.3412 13.704 24.3239C13.7262 24.3152 13.7473 24.3053 13.7683 24.293L18.6115 21.5722L22.1531 19.582C22.2359 19.535 22.3113 19.4831 22.3793 19.425C22.4016 19.4065 22.4226 19.3867 22.4448 19.3657C22.4572 19.3533 22.4708 19.3397 22.4844 19.3261C22.498 19.3113 22.5116 19.2964 22.5239 19.2816C22.5412 19.2618 22.5573 19.242 22.5722 19.2223C22.5783 19.2161 22.582 19.2111 22.5857 19.205C22.5993 19.1877 22.6117 19.1704 22.6241 19.1518C22.629 19.1456 22.6327 19.1394 22.6352 19.1333C22.65 19.1123 22.6636 19.09 22.6747 19.069C22.6896 19.043 22.7044 19.0171 22.7156 18.9911C22.7279 18.9676 22.739 18.9429 22.7489 18.9182C22.7502 18.9145 22.7514 18.9108 22.7526 18.9083C22.7638 18.8823 22.7737 18.8564 22.7811 18.8304C22.791 18.8044 22.7984 18.7785 22.8046 18.7513C22.8058 18.7488 22.8058 18.7464 22.807 18.7451C22.8144 18.7179 22.8194 18.6907 22.8243 18.6635C22.8305 18.6351 22.8355 18.6067 22.8379 18.5782C22.8429 18.5498 22.8453 18.5214 22.8466 18.4929C22.8478 18.488 22.8478 18.4818 22.8478 18.4769C22.8491 18.4534 22.8491 18.4311 22.8491 18.4076C22.8491 17.9515 22.6179 17.4941 22.1531 17.2333L18.6115 15.2443L13.7683 12.5223C13.4988 12.3703 13.1749 12.4828 13.0427 12.7238C13.0253 12.7547 13.0105 12.7881 13.0006 12.8227C12.987 12.8672 12.9808 12.9154 12.9808 12.9649V14.9328" stroke="#010202" stroke-miterlimit="10" stroke-linecap="round"/>
</g>
<defs>
<clipPath id="clip0_106_2574">
<rect width="24" height="24" fill="white" transform="translate(0 0.5)"/>
</clipPath>
</defs>
</svg>
