<svg width="24" height="25" viewBox="0 0 24 25" fill="none" xmlns="http://www.w3.org/2000/svg">
<mask id="mask0_106_2544" style="mask-type:luminance" maskUnits="userSpaceOnUse" x="0" y="0" width="24" height="25">
<path d="M24 0.5H0V24.5H24V0.5Z" fill="white"/>
</mask>
<g mask="url(#mask0_106_2544)">
<mask id="mask1_106_2544" style="mask-type:luminance" maskUnits="userSpaceOnUse" x="0" y="1" width="24" height="24">
<path d="M24 1.45996H0V24.4995H24V1.45996Z" fill="white"/>
</mask>
<g mask="url(#mask1_106_2544)">
<path d="M12.0023 2.65674V19.8958C11.8668 19.8958 11.73 19.836 11.6437 19.7162L8.74188 15.711L5.95886 11.8693C5.75733 11.5907 5.96485 11.2106 6.31753 11.2106H8.79826V3.2095C8.79826 2.90433 9.05617 2.65789 9.37286 2.65789H12.0023V2.65674Z" fill="#A3E96C"/>
<path d="M18.0446 11.8697L15.2616 15.7113L12.361 19.7165C12.2746 19.8363 12.1379 19.8961 12.0023 19.8961C11.8668 19.8961 11.73 19.8363 11.6437 19.7165L8.74188 15.7113L5.95886 11.8697C5.75733 11.5921 5.96485 11.211 6.31753 11.211H8.79826V3.20981C8.79826 2.90464 9.05617 2.6582 9.37286 2.6582H14.6306C14.9485 2.6582 15.2052 2.90464 15.2052 3.20981V11.211H17.6848C18.0386 11.211 18.245 11.591 18.0446 11.8697Z" stroke="#010202" stroke-miterlimit="10" stroke-linecap="round"/>
</g>
</g>
<path d="M17.8272 5.2124C20.543 6.99735 22.3256 9.9972 22.3256 13.3955C22.3256 18.8689 17.7036 23.306 12.002 23.306C6.30042 23.306 1.67725 18.8689 1.67725 13.3955C1.67725 9.9972 3.45982 6.9985 6.17567 5.2124" stroke="#010202" stroke-miterlimit="10" stroke-linecap="round"/>
</svg>
