<svg width="24" height="25" viewBox="0 0 24 25" fill="none" xmlns="http://www.w3.org/2000/svg">
<mask id="mask0_106_2559" style="mask-type:luminance" maskUnits="userSpaceOnUse" x="0" y="0" width="24" height="25">
<path d="M24 0.5H0V24.5H24V0.5Z" fill="white"/>
</mask>
<g mask="url(#mask0_106_2559)">
<mask id="mask1_106_2559" style="mask-type:luminance" maskUnits="userSpaceOnUse" x="0" y="0" width="24" height="24">
<path d="M24 0.5H0V23.5396H24V0.5Z" fill="white"/>
</mask>
<g mask="url(#mask1_106_2559)">
<path d="M12.0007 22.3431V5.104C12.1363 5.104 12.273 5.16389 12.3594 5.28365L15.2612 9.28883L18.0442 13.1305C18.2457 13.4092 18.0382 13.7892 17.6855 13.7892H15.2048V21.7903C15.2048 22.0955 14.9469 22.342 14.6302 22.342H12.0007V22.3431Z" fill="#A3E96C"/>
<path d="M5.95859 13.132L8.74162 9.2903L11.6422 5.28511C11.7286 5.16535 11.8653 5.10547 12.0009 5.10547C12.1364 5.10547 12.2732 5.16535 12.3595 5.28511L15.2613 9.2903L18.0444 13.132C18.2459 13.4095 18.0384 13.7907 17.6857 13.7907H15.205V21.7918C15.205 22.097 14.9471 22.3434 14.6304 22.3434H9.3726C9.05472 22.3434 8.798 22.097 8.798 21.7918V13.7895H6.31846C5.96459 13.7907 5.75706 13.4095 5.95859 13.132Z" stroke="#010202" stroke-miterlimit="10" stroke-linecap="round"/>
</g>
</g>
<path d="M6.17543 19.7874C3.45958 18.0025 1.677 15.0026 1.677 11.6043C1.677 6.13087 6.29898 1.69385 12.0006 1.69385C17.7022 1.69385 22.3254 6.13087 22.3254 11.6043C22.3254 15.0026 20.5428 18.0013 17.827 19.7874" stroke="#010202" stroke-miterlimit="10" stroke-linecap="round"/>
</svg>
