<svg width="24" height="25" viewBox="0 0 24 25" fill="none" xmlns="http://www.w3.org/2000/svg">
<path d="M20.6709 6.97863V12.0679C20.6709 17.2906 15.0921 21.0893 13.0611 22.2983C12.8312 22.4355 12.715 22.5035 12.5518 22.5406C12.4888 22.5542 12.4121 22.5616 12.333 22.5616V1.5C12.3837 1.5 12.4331 1.5037 12.4826 1.51112C12.5938 1.52843 12.7026 1.56922 12.9189 1.65204L18.5051 3.79059C19.2864 4.08974 19.6758 4.23932 19.9638 4.49767C20.2184 4.72636 20.4125 5.01438 20.5336 5.33702C20.6709 5.70292 20.6709 6.12816 20.6709 6.97863Z" fill="#A3E96C"/>
<path d="M9.58247 20.9397C7.1559 19.1177 4 15.9964 4 12.0691V6.97986C4 6.12939 4 5.70292 4.13721 5.33825C4.25712 5.01562 4.45243 4.72635 4.70708 4.4989C4.99386 4.23931 5.38449 4.08974 6.16451 3.79183L11.7507 1.65204C11.967 1.56922 12.077 1.52719 12.187 1.51112C12.2353 1.50247 12.2847 1.5 12.3342 1.5C12.3354 1.5 12.3354 1.5 12.3366 1.5C12.3861 1.5 12.4355 1.50247 12.485 1.51112C12.5974 1.52719 12.7038 1.56922 12.9213 1.65204L18.5075 3.79059C18.7523 3.88454 18.9575 3.96241 19.1342 4.03534C19.2047 4.06378 19.269 4.09098 19.3308 4.11817H19.332C19.4556 4.17256 19.5619 4.22572 19.6559 4.28011C19.6806 4.29247 19.7041 4.30607 19.7263 4.3209C19.7708 4.3481 19.8129 4.37529 19.8512 4.40619C19.8524 4.40495 19.8524 4.40495 19.8524 4.40619C19.8932 4.43462 19.9303 4.46553 19.9662 4.49767C20.2196 4.72636 20.4161 5.01438 20.536 5.33702C20.672 5.70292 20.672 6.12816 20.672 6.97863V12.0679C20.672 15.0866 18.8079 17.6306 16.8424 19.4724C16.7892 19.5231 16.7348 19.5726 16.6817 19.6208C16.5222 19.7679 16.3628 19.9088 16.2033 20.0448C16.2033 20.046 16.2033 20.046 16.2021 20.0448C16.097 20.1375 15.9907 20.2265 15.8856 20.313C15.8856 20.313 15.8856 20.313 15.8844 20.313C15.7274 20.4441 15.5704 20.5689 15.4159 20.6888C15.2601 20.8099 15.1068 20.9261 14.9573 21.0362C14.8077 21.1474 14.6618 21.2525 14.5197 21.3526C14.3293 21.4861 14.1464 21.611 13.9721 21.7259C13.8423 21.8125 13.7186 21.8928 13.6 21.9682C13.4022 22.0931 13.2217 22.2043 13.0635 22.2983C12.8336 22.4355 12.7173 22.5035 12.5554 22.5393C12.4924 22.5542 12.4133 22.5603 12.3366 22.5603" stroke="#030405" stroke-linecap="round" stroke-linejoin="round"/>
<path d="M9.46143 11.4923L11.7063 13.6815L16.7374 8.32031" stroke="#030405" stroke-miterlimit="10" stroke-linecap="round"/>
</svg>
