<svg width="21" height="21" viewBox="0 0 21 21" fill="none" xmlns="http://www.w3.org/2000/svg">
<path d="M11.9998 9.6665H6.99984M8.6665 12.9998H6.99984M13.6665 6.33317H6.99984M16.9998 6.1665V14.8332C16.9998 16.2333 16.9998 16.9334 16.7274 17.4681C16.4877 17.9386 16.1052 18.321 15.6348 18.5607C15.1 18.8332 14.4 18.8332 12.9998 18.8332H7.6665C6.26637 18.8332 5.56631 18.8332 5.03153 18.5607C4.56112 18.321 4.17867 17.9386 3.93899 17.4681C3.6665 16.9334 3.6665 16.2333 3.6665 14.8332V6.1665C3.6665 4.76637 3.6665 4.06631 3.93899 3.53153C4.17867 3.06112 4.56112 2.67867 5.03153 2.43899C5.56631 2.1665 6.26637 2.1665 7.6665 2.1665H12.9998C14.4 2.1665 15.1 2.1665 15.6348 2.43899C16.1052 2.67867 16.4877 3.06112 16.7274 3.53153C16.9998 4.06631 16.9998 4.76637 16.9998 6.1665Z" stroke="#ADADAD" stroke-width="1.5" stroke-linecap="round" stroke-linejoin="round"/>
</svg>
