<svg width="24" height="25" viewBox="0 0 24 25" fill="none" xmlns="http://www.w3.org/2000/svg">
<path d="M15.2587 2.34079C15.2576 2.32829 15.2564 2.3158 15.253 2.3033C15.2133 2.04767 15.1031 1.83294 14.919 1.68752C14.3396 1.22739 13.2455 1.64322 12.4786 2.61573C12.3968 2.72025 12.3196 2.82477 12.2548 2.93271C12.1866 2.82477 12.1117 2.72025 12.031 2.61573C11.2618 1.64322 10.1678 1.22739 9.5872 1.68752C9.00664 2.14651 9.16116 3.30536 9.92803 4.27787C10.0928 4.48805 10.2746 4.6721 10.4609 4.82547" stroke="#020304" stroke-miterlimit="10" stroke-linecap="round"/>
<path d="M17.5887 6.84375H12.3398V12.3846H17.5887V6.84375Z" fill="#A3E96C"/>
<path d="M19.3208 14.9375V22.3654C19.3208 22.4404 19.2606 22.5006 19.1856 22.5006H12.3394V14.9375H19.3208Z" fill="#A3E96C"/>
<path d="M19.3208 14.9375V22.3654C19.3208 22.4404 19.2606 22.5006 19.1856 22.5006H12.3394" stroke="#020304" stroke-miterlimit="10"/>
<path d="M5.35864 17.4219V22.364C5.35864 22.439 5.41885 22.4992 5.49383 22.4992H12.3401" stroke="#020304" stroke-miterlimit="10" stroke-linecap="round"/>
<path d="M7.08984 9.31367V12.3846H12.3398H17.5887H17.5899V6.85283V6.84375" stroke="#030405" stroke-miterlimit="10" stroke-linecap="round"/>
<path d="M4.07611 14.9378H20.4919C20.5339 14.9378 20.5669 14.9037 20.5669 14.8628V12.4656C20.5669 12.4236 20.5339 12.3906 20.4919 12.3906H4.07611C4.03407 12.3906 4 12.4247 4 12.4656V14.8628C4 14.9037 4.03407 14.9378 4.07611 14.9378Z" stroke="#030405" stroke-miterlimit="10"/>
<path d="M5.58474 6.85042H18.9807C19.0227 6.85042 19.0568 6.81633 19.0568 6.77543V4.90425C19.0568 4.86221 19.0227 4.82812 18.9807 4.82812H5.58474C5.5427 4.82812 5.50977 4.86221 5.50977 4.90425V6.77543C5.50977 6.81633 5.5427 6.85042 5.58474 6.85042Z" stroke="#030405" stroke-miterlimit="10"/>
</svg>
