<svg width="24" height="25" viewBox="0 0 24 25" fill="none" xmlns="http://www.w3.org/2000/svg">
<path d="M8.18168 2.50881C8.18416 2.50634 8.19032 2.50881 8.19032 2.51252V6.12827C8.19032 6.72533 7.7033 7.2099 7.10253 7.2099H3.01208C3.00837 7.2099 3.00466 7.20496 3.00837 7.20125C4.7328 5.63751 6.45725 4.07254 8.18168 2.50881Z" stroke="#020304" stroke-miterlimit="10"/>
<path d="M3 7.20312V20.0319C3 20.8404 3.64158 21.4955 4.43395 21.4955H8.7212" stroke="#020304" stroke-miterlimit="10" stroke-linecap="round"/>
<path d="M8.18945 2.5H17.62C18.4112 2.5 19.054 3.1564 19.054 3.96361V9.69022" stroke="#020304" stroke-miterlimit="10" stroke-linecap="round"/>
<path d="M15.3789 11.5794V21.9952C15.3493 21.9964 15.3196 21.9964 15.2899 21.9964C14.4976 21.9964 13.746 21.8246 13.0723 21.5156C11.8114 20.9408 10.82 19.89 10.3342 18.597C10.3243 18.5661 10.3119 18.5352 10.3008 18.5043H10.2996C10.2328 18.3152 10.1772 18.1223 10.1327 17.9245C10.0499 17.5599 10.0054 17.1791 10.0054 16.7885C10.0054 16.3645 10.0573 15.9516 10.1537 15.5561C10.2118 15.3261 10.2835 15.1012 10.37 14.8824C10.6531 14.1716 11.0907 13.5374 11.642 13.0195C11.9115 12.7648 12.2094 12.5386 12.5283 12.3458C13.3318 11.8587 14.2763 11.5781 15.2887 11.5781C15.3196 11.5781 15.3493 11.5794 15.3789 11.5794Z" fill="#A3E96C"/>
<path d="M15.3811 21.994H15.3799C15.3663 21.9952 15.3514 21.9952 15.3378 21.9952C15.3094 21.9964 15.2797 21.9964 15.2501 21.9964C14.4639 21.9964 13.7185 21.8234 13.0497 21.5156C11.8 20.9395 10.8172 19.8888 10.3339 18.597C10.324 18.5661 10.3116 18.534 10.3005 18.5031C10.235 18.3139 10.1781 18.1211 10.1336 17.9233C10.0521 17.5574 10.0088 17.1767 10.0088 16.786C10.0088 16.362 10.0595 15.9492 10.1571 15.5548C10.2127 15.3237 10.2844 15.0987 10.3697 14.8811C10.6516 14.1703 11.0855 13.5362 11.6318 13.0182C11.8989 12.7636 12.1943 12.5374 12.5108 12.3445C13.3081 11.8587 14.2463 11.5781 15.2501 11.5781C15.2797 11.5781 15.3082 11.5781 15.3378 11.5781C15.6716 11.5831 15.9967 11.6202 16.3119 11.6844C17.5604 11.9391 18.6458 12.6363 19.3974 13.6017C20.0822 14.4818 20.4901 15.587 20.4901 16.786C20.4901 17.9851 20.0822 19.089 19.3961 19.9704C19.0339 20.4364 18.5926 20.8394 18.0932 21.1608" stroke="#030405" stroke-miterlimit="10" stroke-linecap="round"/>
<path d="M15.3787 14.7031V17.304C15.3787 17.4944 15.4862 17.6687 15.6556 17.7502L17.3763 18.5785" stroke="#030405" stroke-miterlimit="10" stroke-linecap="round"/>
</svg>
