<svg width="24" height="25" viewBox="0 0 24 25" fill="none" xmlns="http://www.w3.org/2000/svg">
<path d="M22.7897 12.8408C22.7897 18.5506 18.2567 23.18 12.6656 23.18C10.621 23.18 8.71607 22.5606 7.12391 21.4951L1.78002 21.6904C1.42277 21.704 1.13474 21.4926 1 21.2046L19.944 5.65625C20.4014 6.13835 20.8131 6.66742 21.1728 7.23358C22.1951 8.85047 22.7897 10.7752 22.7897 12.8408Z" fill="#A3E96C"/>
<path d="M1.85669 18.9557L3.21151 16.5427C2.77886 15.3931 2.54275 14.1446 2.54275 12.8392C2.54275 7.1294 7.07449 2.5 12.6668 2.5C14.5322 2.5 16.2801 3.01547 17.7808 3.91539" stroke="#030405" stroke-miterlimit="10" stroke-linecap="round"/>
<path d="M1 21.2046C1.00124 21.2058 1.00124 21.2071 1.00124 21.2071C1.13474 21.4951 1.42277 21.7052 1.78126 21.6929L7.12515 21.4976C8.71731 22.5631 10.621 23.1824 12.6668 23.1824C18.2579 23.1824 22.7909 18.553 22.7909 12.8432C22.7909 10.7776 22.1963 8.85171 21.1728 7.2373C20.8143 6.67114 20.4027 6.14206 19.9453 5.65872C19.9441 5.65872 19.944 5.65749 19.9428 5.65625" stroke="#030405" stroke-miterlimit="10" stroke-linecap="round"/>
<path d="M9.13028 14.1869L7.98684 14.8C7.79153 14.9039 7.56408 14.7358 7.6024 14.5145L7.8212 13.2153C7.83603 13.1263 7.8076 13.0373 7.74456 12.9755L6.81992 12.0558C6.66293 11.8988 6.74945 11.6256 6.96701 11.5935L8.24519 11.4043C8.33172 11.392 8.40589 11.3364 8.44421 11.256L9.01655 10.073C9.11421 9.8715 9.39606 9.8715 9.49248 10.073L10.0648 11.256C10.1031 11.3364 10.1773 11.392 10.2638 11.4043L11.542 11.5935C11.7596 11.6268 11.8473 11.9 11.6891 12.0558L10.7645 12.9755C10.7027 13.0373 10.673 13.1275 10.6878 13.2153L10.9066 14.5145C10.945 14.737 10.7163 14.9051 10.5222 14.8L9.37875 14.1869C9.29964 14.1449 9.20692 14.1449 9.13028 14.1869Z" stroke="#030405" stroke-miterlimit="10"/>
<path d="M15.7343 14.4291L14.5908 15.0435C14.3955 15.1473 14.1681 14.9779 14.2064 14.7579L14.4252 13.4587C14.44 13.3697 14.4116 13.2807 14.3486 13.2189L13.4239 12.298C13.2669 12.1422 13.3535 11.8678 13.571 11.8369L14.8492 11.6465C14.9357 11.6342 15.0099 11.5785 15.0482 11.4982L15.6206 10.3152C15.7182 10.1137 16.0001 10.1137 16.0965 10.3152L16.6688 11.4982C16.7071 11.5785 16.7825 11.6342 16.8678 11.6465L18.146 11.8369C18.3636 11.8703 18.4514 12.1434 18.2931 12.298L17.3685 13.2189C17.3067 13.2807 17.277 13.3709 17.2918 13.4587L17.5106 14.7579C17.549 14.9792 17.3203 15.1485 17.1262 15.0435L15.9828 14.4291C15.9036 14.3871 15.8109 14.3871 15.7343 14.4291Z" stroke="#030405" stroke-miterlimit="10"/>
</svg>
