<svg width="24" height="25" viewBox="0 0 24 25" fill="none" xmlns="http://www.w3.org/2000/svg">
<path d="M4.94702 4.7409V4.23106C4.94702 3.27542 5.70585 2.5 6.64133 2.5H21.3056C22.2411 2.5 22.9999 3.27542 22.9999 4.23106V14.4301C22.9999 15.3858 22.2411 16.16 21.3056 16.16H20.3819V18.7032C20.3819 19.5379 19.3635 19.9162 18.837 19.2795L18.6106 19.0044" stroke="#030405" stroke-miterlimit="10" stroke-linecap="round"/>
<path d="M16.697 8.84172V17.7093C16.697 18.5404 16.0365 19.2151 15.2232 19.2151H6.85479L4.61864 21.9267C4.16216 22.4816 3.27647 22.1519 3.27647 21.4263V19.2151H2.47378C1.66042 19.2151 1 18.5404 1 17.7093V8.84172C1 8.01057 1.66042 7.33594 2.47378 7.33594H15.2232C16.0365 7.33594 16.697 8.01057 16.697 8.84172Z" fill="#A3E96C" stroke="#030405" stroke-miterlimit="10"/>
<path d="M7.23193 11.1904C7.24853 11.0659 7.35761 10.3462 8.00261 9.90162C8.62746 9.47122 9.46809 9.49732 10.0206 9.88028C10.9027 10.4921 10.9146 11.9208 10.4225 12.6488C10.087 13.1456 9.63052 13.1468 9.23926 13.8001C8.97485 14.2411 8.9132 14.6917 8.90134 14.994" stroke="black" stroke-miterlimit="10" stroke-linecap="round"/>
<path d="M9.15877 17.1232C9.42363 17.1232 9.63835 16.9085 9.63835 16.6436C9.63835 16.3788 9.42363 16.1641 9.15877 16.1641C8.8939 16.1641 8.6792 16.3788 8.6792 16.6436C8.6792 16.9085 8.8939 17.1232 9.15877 17.1232Z" fill="black"/>
</svg>
