<svg width="24" height="25" viewBox="0 0 24 25" fill="none" xmlns="http://www.w3.org/2000/svg">
<path d="M7.7231 2.3125H10.2831C10.4431 2.3125 10.5831 2.41537 10.5831 2.55564V22.399C10.5831 22.5486 10.4131 22.6702 10.2331 22.6328C9.81311 22.558 9.42309 22.3429 9.18309 21.9875L6.80312 18.5463L3.54311 13.8426C3.30311 13.506 3.60311 13.0758 4.07311 13.0758H6.43309V3.40661C6.42309 2.79878 7.0031 2.3125 7.7231 2.3125Z" fill="#A3E96C"/>
<path d="M17.6599 14.1273V21.4235C17.6711 22.0215 17.0086 22.5 16.2114 22.5H13.3368C13.1572 22.5 13 22.3988 13 22.2608V2.73674C13 2.58953 13.1909 2.46992 13.393 2.50672C13.8646 2.58033 14.3025 2.79195 14.572 3.14158L17.2445 6.52748L20.905 11.1555C21.1745 11.4867 20.8376 11.9099 20.3099 11.9099H17.6599" stroke="#020304" stroke-miterlimit="10" stroke-linecap="round"/>
<path d="M10.2031 22.5297C9.78308 22.4549 9.39306 22.2398 9.15306 21.8844L6.77309 18.4432L3.51308 13.7395C3.27308 13.4029 3.57308 12.9727 4.04308 12.9727H6.40306V3.3035C6.40306 2.70502 6.98308 2.21875 7.70308 2.21875H10.2631" stroke="#020304" stroke-miterlimit="10" stroke-linecap="round"/>
</svg>
