<svg width="24" height="25" viewBox="0 0 24 25" fill="none" xmlns="http://www.w3.org/2000/svg">
<path d="M22.9175 12.7746V15.908C22.9175 17.0179 22.6819 18.017 22.1783 18.8763C21.6852 19.7182 21.0072 20.3696 20.1525 20.8154C19.3036 21.2763 18.3566 21.4992 17.3298 21.4992C16.2973 21.4992 15.3398 21.2647 14.4759 20.7866C14.0555 20.5625 13.6743 20.2899 13.3325 19.9723C13.0045 20.3003 12.6303 20.5798 12.2133 20.8085C11.3991 21.2716 10.4994 21.4992 9.53035 21.4992C8.5186 21.4992 7.58655 21.2751 6.75266 20.812C6.72264 20.7958 6.69376 20.7808 6.66489 20.7646C6.47086 21.1111 6.10011 21.3456 5.67393 21.3456H3.13533C2.76805 21.3456 2.44235 21.1712 2.23446 20.9009C2.08778 20.7092 2 20.4701 2 20.2102V12.7746H6.80926V15.6793C6.83005 15.7325 6.84737 15.7879 6.86008 15.8445C6.89473 15.9958 6.94785 16.1263 7.01484 16.2383C7.14766 16.4624 7.32091 16.6229 7.54843 16.7326L7.56114 16.7384L7.57384 16.7454C7.81639 16.8747 8.09704 16.9452 8.43313 16.9452C8.93092 16.9452 9.30051 16.7962 9.59503 16.519L9.60542 16.5086L9.61581 16.4993C9.88492 16.2672 10.0547 15.923 10.0547 15.3606V12.7734H14.864V15.6158C14.8778 15.6597 14.8882 15.7036 14.8951 15.7486C14.9286 15.9427 14.9898 16.1032 15.0695 16.2383C15.2024 16.4624 15.3756 16.6229 15.6031 16.7326L15.6158 16.7396C15.8872 16.877 16.1737 16.9463 16.4867 16.9463C16.9845 16.9463 17.3541 16.7973 17.6497 16.5201L17.6601 16.5097L17.6705 16.5005C17.9396 16.2684 18.1094 15.9242 18.1094 15.3617V12.7746H22.9175Z" fill="#A3E96C"/>
<path d="M14.8641 7.71334V6.29042C14.8641 5.66443 14.3559 5.15625 13.7299 5.15625H11.1902C10.5642 5.15625 10.056 5.66443 10.056 6.29042V12.7755V15.3626C10.056 15.9251 9.88621 16.2681 9.6171 16.5014L9.60671 16.5107L9.59516 16.5211C9.30065 16.7983 8.93106 16.9473 8.43327 16.9473C8.09718 16.9473 7.81652 16.8768 7.57398 16.7474L7.56127 16.7405L7.54972 16.7347C7.37879 16.6516 7.23789 16.5407 7.12354 16.3963C7.08428 16.3478 7.04847 16.297 7.01613 16.2404C6.99996 16.2115 6.98379 16.1827 6.96878 16.1526C6.92373 16.0614 6.88793 15.9598 6.86137 15.8466V15.8443C6.82787 15.7034 6.81055 15.5578 6.81055 15.4123V12.7755V12.3239" stroke="#010202" stroke-miterlimit="10" stroke-linecap="round"/>
<path d="M22.9185 7.32993V12.7779V15.9113C22.9185 17.0212 22.6829 18.0202 22.1793 18.8795C21.6861 19.7215 21.0082 20.3729 20.1535 20.8199C19.3046 21.2795 18.3575 21.5036 17.3308 21.5036C16.2982 21.5036 15.3408 21.2692 14.4769 20.791C14.0565 20.5669 13.6742 20.2944 13.3335 19.9768C13.0054 20.3048 12.6324 20.5843 12.2143 20.8129C11.4001 21.2761 10.5003 21.5036 9.53132 21.5036C8.51957 21.5036 7.58752 21.2795 6.75364 20.8164C6.72361 20.8002 6.69474 20.7841 6.66586 20.7679C6.47183 21.1144 6.09993 21.3488 5.67491 21.3488H3.1363C2.76902 21.3488 2.44333 21.1744 2.23543 20.9042C2.08875 20.7136 2.00098 20.4734 2.00098 20.2135V12.7779V7.94667C2.00098 7.32068 2.50916 6.8125 3.1363 6.8125H5.67491C6.30205 6.8125 6.81023 7.32068 6.81023 7.94667V9.72185" stroke="#010202" stroke-miterlimit="10" stroke-linecap="round"/>
<path d="M14.864 10.3281V12.7743V15.425C14.864 15.5289 14.8767 15.6317 14.8929 15.7333C14.8929 15.7357 14.894 15.738 14.894 15.7403C14.894 15.7414 14.8952 15.7437 14.8952 15.7449C14.8952 15.746 14.8952 15.7472 14.8964 15.7484V15.7495C14.9298 15.9436 14.9899 16.1041 15.0696 16.2392C15.2024 16.4633 15.3768 16.6227 15.6032 16.7335L15.6159 16.7393C15.8873 16.8768 16.1737 16.9461 16.4879 16.9461C16.9845 16.9461 17.3553 16.7971 17.6498 16.5199L17.6602 16.5095L17.6717 16.5002C17.7722 16.4125 17.8588 16.3097 17.9281 16.1861C17.9743 16.1029 18.0124 16.0105 18.0413 15.9077C18.0852 15.7518 18.1095 15.5717 18.1095 15.3615V12.7743V4.63532C18.1095 4.00933 18.6188 3.5 19.2459 3.5H21.7834C22.0467 3.5 22.2893 3.59008 22.4821 3.74023C22.7478 3.94812 22.9187 4.27266 22.9187 4.63532V4.69769" stroke="#010202" stroke-miterlimit="10" stroke-linecap="round"/>
</svg>
