<svg width="21" height="21" viewBox="0 0 21 21" fill="none" xmlns="http://www.w3.org/2000/svg">
<path d="M19.0002 7.16684V10.5002M9.20849 5.0835H6.3335C4.93336 5.0835 4.2333 5.0835 3.69852 5.35599C3.22811 5.59567 2.84566 5.97812 2.60598 6.44853C2.33349 6.98331 2.3335 7.68337 2.3335 9.08351L2.3335 10.0835C2.3335 10.8601 2.3335 11.2484 2.46037 11.5546C2.62952 11.963 2.95398 12.2875 3.36236 12.4566C3.66864 12.5835 4.05693 12.5835 4.8335 12.5835V16.1252C4.8335 16.3186 4.8335 16.4154 4.84152 16.4969C4.91946 17.2882 5.54551 17.9142 6.3368 17.9921C6.41829 18.0002 6.51502 18.0002 6.7085 18.0002C6.90197 18.0002 6.99871 18.0002 7.08019 17.9921C7.87149 17.9142 8.49754 17.2882 8.57547 16.4969C8.5835 16.4154 8.5835 16.3186 8.5835 16.1252V12.5835H9.2085C10.6805 12.5835 12.4812 13.3726 13.8704 14.1299C14.6809 14.5717 15.0861 14.7926 15.3515 14.7601C15.5976 14.7299 15.7837 14.6194 15.9279 14.4178C16.0835 14.2003 16.0835 13.7652 16.0835 12.8949V4.77207C16.0835 3.90183 16.0835 3.46671 15.9279 3.24924C15.7837 3.04759 15.5976 2.93709 15.3515 2.90694C15.0861 2.87444 14.6809 3.09534 13.8704 3.53713C12.4812 4.29443 10.6805 5.0835 9.20849 5.0835Z" stroke="#ADADAD" stroke-width="1.5" stroke-linecap="round" stroke-linejoin="round"/>
<line x1="6.41675" y1="5.5" x2="6.41675" y2="12.1667" stroke="#ADADAD" stroke-width="1.5"/>
<path d="M4.8335 12.5831C5.66683 12.5831 8.16683 12.1665 9.41683 12.5831" stroke="#ADADAD" stroke-width="1.5"/>
</svg>
