<svg width="375" height="291" viewBox="0 0 375 291" fill="none" xmlns="http://www.w3.org/2000/svg">
<g clip-path="url(#clip0_20_4173)">
<g filter="url(#filter0_b_20_4173)">
<rect width="375" height="291" fill="#D2D5DB"/>
</g>
<g filter="url(#filter1_d_20_4173)">
<rect x="284" y="170" width="88" height="42" rx="5" fill="#007BFE"/>
</g>
<path d="M304.683 196V184.727H308.995C311.066 184.727 312.331 185.812 312.331 187.531V187.547C312.331 188.711 311.472 189.773 310.386 189.969V190.094C311.925 190.289 312.902 191.344 312.902 192.828V192.844C312.902 194.82 311.48 196 309.081 196H304.683ZM308.698 185.969H306.089V189.586H308.339C310.042 189.586 310.909 188.977 310.909 187.789V187.773C310.909 186.633 310.097 185.969 308.698 185.969ZM308.737 190.797H306.089V194.758H308.87C310.566 194.758 311.456 194.07 311.456 192.773V192.758C311.456 191.461 310.534 190.797 308.737 190.797ZM317.527 196.148C315.613 196.148 314.628 195.023 314.628 193.031V187.578H315.988V192.703C315.988 194.219 316.535 194.945 317.878 194.945C319.363 194.945 320.152 194.039 320.152 192.562V187.578H321.511V196H320.152V194.742H320.027C319.613 195.641 318.761 196.148 317.527 196.148ZM326.621 196.148C324.746 196.148 323.457 195.242 323.301 193.852H324.691C324.918 194.555 325.59 195.016 326.668 195.016C327.801 195.016 328.605 194.477 328.605 193.711V193.695C328.605 193.125 328.176 192.727 327.137 192.477L325.832 192.164C324.254 191.789 323.543 191.102 323.543 189.891V189.883C323.543 188.484 324.887 187.43 326.676 187.43C328.441 187.43 329.668 188.312 329.855 189.688H328.519C328.34 189.023 327.683 188.562 326.668 188.562C325.668 188.562 324.933 189.078 324.933 189.82V189.836C324.933 190.406 325.355 190.766 326.347 191.008L327.644 191.32C329.23 191.703 329.996 192.391 329.996 193.594V193.609C329.996 195.109 328.535 196.148 326.621 196.148ZM335.231 196.148C332.871 196.148 331.363 194.438 331.363 191.766V191.75C331.363 189.133 332.863 187.43 335.223 187.43C337.27 187.43 338.496 188.609 338.746 190.109L338.754 190.156H337.403L337.395 190.133C337.184 189.305 336.434 188.633 335.223 188.633C333.707 188.633 332.754 189.852 332.754 191.75V191.766C332.754 193.703 333.723 194.945 335.223 194.945C336.356 194.945 337.074 194.445 337.387 193.508L337.403 193.461L338.746 193.453L338.731 193.539C338.387 195.062 337.254 196.148 335.231 196.148ZM342.731 196.148C341.129 196.148 339.918 195.18 339.918 193.648V193.633C339.918 192.133 341.028 191.266 342.989 191.148L345.403 191V190.234C345.403 189.195 344.77 188.633 343.512 188.633C342.504 188.633 341.84 189.008 341.622 189.664L341.614 189.688H340.254L340.262 189.641C340.481 188.32 341.762 187.43 343.559 187.43C345.614 187.43 346.762 188.484 346.762 190.234V196H345.403V194.758H345.278C344.747 195.656 343.864 196.148 342.731 196.148ZM341.309 193.617C341.309 194.469 342.036 194.969 343.012 194.969C344.395 194.969 345.403 194.062 345.403 192.859V192.094L343.153 192.234C341.872 192.312 341.309 192.766 341.309 193.602V193.617ZM348.927 196V187.578H350.286V188.828H350.411C350.731 187.945 351.52 187.43 352.661 187.43C352.919 187.43 353.208 187.461 353.341 187.484V188.805C353.059 188.758 352.802 188.727 352.505 188.727C351.208 188.727 350.286 189.547 350.286 190.781V196H348.927Z" fill="white"/>
<g filter="url(#filter2_d_20_4173)">
<path fill-rule="evenodd" clip-rule="evenodd" d="M330 123C330 120.239 332.239 118 335 118H367C369.761 118 372 120.239 372 123V155C372 157.761 369.761 160 367 160H335C332.239 160 330 157.761 330 155V123ZM3 175C3 172.239 5.23858 170 8 170H85C87.7614 170 90 172.239 90 175V207C90 209.761 87.7614 212 85 212H8C5.23858 212 3 209.761 3 207V175ZM8 118C5.23858 118 3 120.239 3 123V155C3 157.761 5.23858 160 8 160H40C42.7614 160 45 157.761 45 155V123C45 120.239 42.7614 118 40 118H8Z" fill="#ACB4BE"/>
</g>
<g filter="url(#filter3_d_20_4173)">
<path fill-rule="evenodd" clip-rule="evenodd" d="M3 15C3 12.2386 5.23858 10 8 10H30C32.7614 10 35 12.2386 35 15V47C35 49.7614 32.7614 52 30 52H8C5.23858 52 3 49.7614 3 47V15ZM345 10C342.239 10 340 12.2386 340 15V47C340 49.7614 342.239 52 345 52H367C369.761 52 372 49.7614 372 47V15C372 12.2386 369.761 10 367 10H345ZM22 69C22 66.2386 24.2386 64 27 64H49C51.7614 64 54 66.2386 54 69V101C54 103.761 51.7614 106 49 106H27C24.2386 106 22 103.761 22 101V69ZM321.5 69C321.5 66.2386 323.739 64 326.5 64H348.5C351.261 64 353.5 66.2386 353.5 69V101C353.5 103.761 351.261 106 348.5 106H326.5C323.739 106 321.5 103.761 321.5 101V69ZM64 118C61.2386 118 59 120.239 59 123V155C59 157.761 61.2386 160 64 160H86C88.7614 160 91 157.761 91 155V123C91 120.239 88.7614 118 86 118H64ZM96.5 123C96.5 120.239 98.7386 118 101.5 118H123.5C126.261 118 128.5 120.239 128.5 123V155C128.5 157.761 126.261 160 123.5 160H101.5C98.7386 160 96.5 157.761 96.5 155V123ZM139 118C136.239 118 134 120.239 134 123V155C134 157.761 136.239 160 139 160H161C163.761 160 166 157.761 166 155V123C166 120.239 163.761 118 161 118H139ZM171.5 123C171.5 120.239 173.739 118 176.5 118H198.5C201.261 118 203.5 120.239 203.5 123V155C203.5 157.761 201.261 160 198.5 160H176.5C173.739 160 171.5 157.761 171.5 155V123ZM214 118C211.239 118 209 120.239 209 123V155C209 157.761 211.239 160 214 160H236C238.761 160 241 157.761 241 155V123C241 120.239 238.761 118 236 118H214ZM246.5 123C246.5 120.239 248.739 118 251.5 118H273.5C276.261 118 278.5 120.239 278.5 123V155C278.5 157.761 276.261 160 273.5 160H251.5C248.739 160 246.5 157.761 246.5 155V123ZM284 123C284 120.239 286.239 118 289 118H311C313.761 118 316 120.239 316 123V155C316 157.761 313.761 160 311 160H289C286.239 160 284 157.761 284 155V123ZM289 64C286.239 64 284 66.2386 284 69V101C284 103.761 286.239 106 289 106H311C313.761 106 316 103.761 316 101V69C316 66.2386 313.761 64 311 64H289ZM246.5 69C246.5 66.2386 248.739 64 251.5 64H273.5C276.261 64 278.5 66.2386 278.5 69V101C278.5 103.761 276.261 106 273.5 106H251.5C248.739 106 246.5 103.761 246.5 101V69ZM214 64C211.239 64 209 66.2386 209 69V101C209 103.761 211.239 106 214 106H236C238.761 106 241 103.761 241 101V69C241 66.2386 238.761 64 236 64H214ZM171.5 69C171.5 66.2386 173.739 64 176.5 64H198.5C201.261 64 203.5 66.2386 203.5 69V101C203.5 103.761 201.261 106 198.5 106H176.5C173.739 106 171.5 103.761 171.5 101V69ZM139 64C136.239 64 134 66.2386 134 69V101C134 103.761 136.239 106 139 106H161C163.761 106 166 103.761 166 101V69C166 66.2386 163.761 64 161 64H139ZM96.5 69C96.5 66.2386 98.7386 64 101.5 64H123.5C126.261 64 128.5 66.2386 128.5 69V101C128.5 103.761 126.261 106 123.5 106H101.5C98.7386 106 96.5 103.761 96.5 101V69ZM64.5 64C61.7386 64 59.5 66.2386 59.5 69V101C59.5 103.761 61.7386 106 64.5 106H86.5C89.2614 106 91.5 103.761 91.5 101V69C91.5 66.2386 89.2614 64 86.5 64H64.5ZM302.5 15C302.5 12.2386 304.739 10 307.5 10H329.5C332.261 10 334.5 12.2386 334.5 15V47C334.5 49.7614 332.261 52 329.5 52H307.5C304.739 52 302.5 49.7614 302.5 47V15ZM270 10C267.239 10 265 12.2386 265 15V47C265 49.7614 267.239 52 270 52H292C294.761 52 297 49.7614 297 47V15C297 12.2386 294.761 10 292 10H270ZM227.5 15C227.5 12.2386 229.739 10 232.5 10H254.5C257.261 10 259.5 12.2386 259.5 15V47C259.5 49.7614 257.261 52 254.5 52H232.5C229.739 52 227.5 49.7614 227.5 47V15ZM195 10C192.239 10 190 12.2386 190 15V47C190 49.7614 192.239 52 195 52H217C219.761 52 222 49.7614 222 47V15C222 12.2386 219.761 10 217 10H195ZM152.5 15C152.5 12.2386 154.739 10 157.5 10H179.5C182.261 10 184.5 12.2386 184.5 15V47C184.5 49.7614 182.261 52 179.5 52H157.5C154.739 52 152.5 49.7614 152.5 47V15ZM120 10C117.239 10 115 12.2386 115 15V47C115 49.7614 117.239 52 120 52H142C144.761 52 147 49.7614 147 47V15C147 12.2386 144.761 10 142 10H120ZM77.5 15C77.5 12.2386 79.7386 10 82.5 10H104.5C107.261 10 109.5 12.2386 109.5 15V47C109.5 49.7614 107.261 52 104.5 52H82.5C79.7386 52 77.5 49.7614 77.5 47V15ZM45.5 10C42.7386 10 40.5 12.2386 40.5 15V47C40.5 49.7614 42.7386 52 45.5 52H67.5C70.2614 52 72.5 49.7614 72.5 47V15C72.5 12.2386 70.2614 10 67.5 10H45.5ZM96 175C96 172.239 98.2386 170 101 170H179.5C182.261 170 184.5 172.239 184.5 175V207C184.5 209.761 182.261 212 179.5 212H101C98.2386 212 96 209.761 96 207V175ZM195.5 170C192.739 170 190.5 172.239 190.5 175V207C190.5 209.761 192.739 212 195.5 212H226.5C229.261 212 231.5 209.761 231.5 207V175C231.5 172.239 229.261 170 226.5 170H195.5ZM242.5 170C239.739 170 237.5 172.239 237.5 175V207C237.5 209.761 239.739 212 242.5 212H273.5C276.261 212 278.5 209.761 278.5 207V175C278.5 172.239 276.261 170 273.5 170H242.5Z" fill="white"/>
</g>
<path fill-rule="evenodd" clip-rule="evenodd" d="M281 23.5576C281.741 23.5576 282.348 22.9512 282.348 22.21C282.348 21.4688 281.741 20.8623 281 20.8623C280.259 20.8623 279.652 21.4688 279.652 22.21C279.652 22.9512 280.259 23.5576 281 23.5576ZM357.208 25.6802C355.557 25.6802 354.108 26.5225 353.333 27.915H353.153V25.8936H351.312V42.043H353.243V36.1807H353.423C354.085 37.4609 355.478 38.2134 357.208 38.2134C360.285 38.2134 362.295 35.7314 362.295 31.9468C362.295 28.1396 360.296 25.6802 357.208 25.6802ZM356.747 36.4727C354.568 36.4727 353.187 34.7207 353.187 31.9468C353.187 29.1616 354.568 27.4209 356.758 27.4209C358.971 27.4209 360.296 29.1167 360.296 31.9468C360.296 34.7769 358.971 36.4727 356.747 36.4727ZM280.034 38V25.8936H281.966V38H280.034ZM263.87 76.21C263.87 76.9512 263.264 77.5576 262.522 77.5576C261.781 77.5576 261.175 76.9512 261.175 76.21C261.175 75.4688 261.781 74.8623 262.522 74.8623C263.264 74.8623 263.87 75.4688 263.87 76.21ZM263.466 92.5952V79.8936H261.534V92.6289C261.534 93.9653 261.085 94.5044 259.715 94.5044H259.423V96.1553H259.76C262.298 96.1553 263.466 95.0884 263.466 92.5952ZM336.534 92V75.0869H338.466V92H336.534ZM226.275 146.213C229.341 146.213 231.351 143.731 231.351 139.947C231.351 136.14 229.352 133.68 226.275 133.68C224.613 133.68 223.142 134.5 222.479 135.803H222.299V129.087H220.368V146H222.209V144.068H222.389C223.153 145.416 224.59 146.213 226.275 146.213ZM225.826 135.421C228.038 135.421 229.352 137.117 229.352 139.947C229.352 142.777 228.038 144.473 225.826 144.473C223.625 144.473 222.254 142.743 222.254 139.947C222.254 137.15 223.625 135.421 225.826 135.421ZM362 144.933C362 146.075 361.103 147 360.002 147H348L340 139L348 131H360.002C361.105 131 362 131.929 362 133.067V144.933ZM360.002 146C360.544 146 361 145.529 361 144.933V133.067C361 132.473 360.544 132 360.002 132H348.414L341.414 139L348.414 146H360.002ZM202.279 190.898C202.279 185.338 206.053 181.531 211.556 181.531C216.868 181.531 220.563 184.923 220.563 189.797C220.563 193.458 218.923 195.783 216.34 195.783C215.026 195.783 214.004 194.997 213.869 193.896H213.689C213.207 195.042 212.196 195.682 210.882 195.682C208.546 195.682 206.974 193.761 206.974 190.909C206.974 188.18 208.58 186.271 210.882 186.271C212.061 186.271 213.072 186.877 213.51 187.854H213.689V186.484H215.385V193.076C215.385 193.862 215.846 194.323 216.654 194.323C218.069 194.323 218.979 192.537 218.979 189.775C218.979 185.72 215.902 182.946 211.41 182.946C207.019 182.946 203.863 186.293 203.863 190.965C203.863 195.76 206.962 198.849 211.769 198.849C213.308 198.849 214.824 198.635 215.531 198.31V199.725C214.521 200.073 213.162 200.275 211.747 200.275C205.952 200.275 202.279 196.636 202.279 190.898ZM213.667 190.954C213.667 189.033 212.69 187.82 211.163 187.82C209.658 187.82 208.771 188.988 208.771 190.954C208.771 192.908 209.669 194.098 211.14 194.098C212.679 194.098 213.667 192.874 213.667 190.954ZM258.16 195.96C257.605 195.96 257.144 195.5 257.144 194.945C257.144 194.382 257.605 193.929 258.16 193.929C258.723 193.929 259.176 194.382 259.176 194.945C259.176 195.5 258.723 195.96 258.16 195.96ZM158.254 185.016C158.254 185.531 157.833 185.953 157.317 185.953C156.801 185.953 156.379 185.531 156.379 185.016C156.379 184.5 156.801 184.078 157.317 184.078C157.833 184.078 158.254 184.5 158.254 185.016ZM118.745 193.82C118.393 194.562 117.659 194.961 116.573 194.961C115.143 194.961 114.214 193.906 114.143 192.242V192.18H120.198V191.664C120.198 189.047 118.815 187.43 116.542 187.43C114.229 187.43 112.745 189.148 112.745 191.797C112.745 194.461 114.206 196.148 116.542 196.148C118.386 196.148 119.698 195.258 120.089 193.82H118.745ZM116.526 188.617C117.862 188.617 118.753 189.602 118.784 191.094H114.143C114.245 189.602 115.183 188.617 116.526 188.617ZM124.089 192.164C122.511 191.781 121.792 191.102 121.792 189.883C121.792 188.484 123.144 187.43 124.933 187.43C126.698 187.43 127.925 188.305 128.105 189.688H126.777C126.597 189.016 125.941 188.57 124.925 188.57C123.925 188.57 123.144 189.078 123.144 189.828C123.144 190.406 123.613 190.766 124.605 191.008L125.902 191.32C127.488 191.703 128.253 192.391 128.253 193.602C128.253 195.109 126.792 196.148 124.878 196.148C123.003 196.148 121.714 195.25 121.566 193.852H122.948C123.175 194.562 123.847 195.016 124.925 195.016C126.058 195.016 126.87 194.477 126.87 193.703C126.87 193.125 126.433 192.734 125.534 192.516L124.089 192.164ZM134.144 187.43C132.996 187.43 131.988 188.016 131.449 188.984H131.324V187.578H130.043V198.812H131.386V194.734H131.511C131.972 195.625 132.941 196.148 134.144 196.148C136.285 196.148 137.683 194.422 137.683 191.789C137.683 189.141 136.293 187.43 134.144 187.43ZM131.347 191.789C131.347 193.719 132.308 194.938 133.824 194.938C135.371 194.938 136.293 193.758 136.293 191.789C136.293 189.82 135.371 188.641 133.832 188.641C132.308 188.641 131.347 189.852 131.347 191.789ZM141.816 196.148C142.941 196.148 143.863 195.656 144.41 194.758H144.535V196H145.816V190.234C145.816 188.484 144.668 187.43 142.613 187.43C140.816 187.43 139.488 188.32 139.308 189.672H140.668C140.855 189.008 141.558 188.625 142.566 188.625C143.824 188.625 144.473 189.195 144.473 190.234V191L142.043 191.148C140.082 191.266 138.973 192.133 138.973 193.641C138.973 195.18 140.183 196.148 141.816 196.148ZM140.363 193.609C140.363 194.469 141.09 194.969 142.066 194.969C143.449 194.969 144.473 194.062 144.473 192.859V192.086L142.207 192.234C140.926 192.32 140.363 192.766 140.363 193.609ZM154.949 190.156C154.715 188.656 153.465 187.43 151.418 187.43C149.059 187.43 147.559 189.133 147.559 191.758C147.559 194.438 149.067 196.148 151.426 196.148C153.449 196.148 154.707 195.008 154.949 193.461H153.59C153.34 194.414 152.551 194.938 151.418 194.938C149.918 194.938 148.949 193.703 148.949 191.758C148.949 189.852 149.903 188.641 151.418 188.641C152.629 188.641 153.371 189.32 153.59 190.156H154.949ZM167.575 191.789C167.575 194.492 166.091 196.148 163.692 196.148C161.294 196.148 159.809 194.492 159.809 191.789C159.809 189.078 161.294 187.43 163.692 187.43C166.091 187.43 167.575 189.078 167.575 191.789ZM156.645 196H157.989V187.578H156.645V196ZM163.692 194.938C162.098 194.938 161.2 193.781 161.2 191.789C161.2 189.789 162.098 188.641 163.692 188.641C165.286 188.641 166.184 189.789 166.184 191.789C166.184 193.781 165.286 194.938 163.692 194.938ZM41.7303 187.906H43.0897C43.0897 186.57 43.9881 185.688 45.3397 185.688C46.6678 185.688 47.4725 186.578 47.4725 187.773C47.4725 188.766 47.0506 189.352 45.6131 190.906L41.8006 195.031V196H49.0975V194.734H43.7538V194.609L46.3163 191.961C48.3475 189.859 48.91 188.922 48.91 187.625C48.91 185.797 47.4022 184.461 45.4335 184.461C43.2772 184.461 41.7303 185.898 41.7303 187.906ZM37.355 196H38.7613V184.727H37.3628L34.3628 186.883V188.367L37.23 186.289H37.355V196ZM53.5119 189.602V190.805H54.9103C56.4963 190.805 57.4728 191.617 57.4728 192.922C57.4728 194.188 56.4181 195.039 54.9338 195.039C53.4806 195.039 52.465 194.281 52.34 193.094H50.9806C51.0822 195.008 52.6603 196.266 54.9494 196.266C57.1916 196.266 58.9181 194.852 58.9181 192.961C58.9181 191.391 57.9494 190.398 56.4885 190.164V190.039C57.6447 189.703 58.4885 188.805 58.4963 187.445C58.5041 185.867 57.2228 184.461 54.9963 184.461C52.715 184.461 51.3166 185.812 51.176 187.648H52.5431C52.6603 186.383 53.5431 185.688 54.9025 185.688C56.2619 185.688 57.0666 186.547 57.0666 187.602C57.0666 188.773 56.1447 189.602 54.8478 189.602H53.5119ZM353.5 138.293L350.318 135.111L349.611 135.818L352.793 139L349.611 142.182L350.318 142.889L353.5 139.707L356.682 142.889L357.389 142.182L354.207 139L357.389 135.818L356.682 135.111L353.5 138.293ZM292.313 133.894V146H294.245V138.498C294.245 136.791 295.469 135.421 297.052 135.421C298.58 135.421 299.579 136.342 299.579 137.779V146H301.511V138.217C301.511 136.679 302.634 135.421 304.318 135.421C306.025 135.421 306.868 136.297 306.868 138.083V146H308.799V137.633C308.799 135.095 307.418 133.68 304.947 133.68C303.274 133.68 301.893 134.522 301.241 135.803H301.062C300.5 134.545 299.355 133.68 297.715 133.68C296.098 133.68 294.885 134.455 294.335 135.803H294.155V133.894H292.313ZM257.609 146V133.894H259.451V135.803H259.631C260.237 134.466 261.416 133.68 263.269 133.68C265.987 133.68 267.503 135.286 267.503 138.161V146H265.572V138.633C265.572 136.454 264.651 135.421 262.719 135.421C260.787 135.421 259.541 136.712 259.541 138.835V146H257.609ZM193.469 133.894L188.988 146H187.012L182.531 133.894H184.597L187.91 143.866H188.09L191.403 133.894H193.469ZM153.948 137.6H155.902C155.565 135.443 153.768 133.68 150.826 133.68C147.434 133.68 145.278 136.128 145.278 139.902C145.278 143.754 147.445 146.213 150.837 146.213C153.746 146.213 155.554 144.574 155.902 142.35H153.948C153.588 143.72 152.454 144.473 150.826 144.473C148.669 144.473 147.277 142.698 147.277 139.902C147.277 137.162 148.647 135.421 150.826 135.421C152.566 135.421 153.633 136.398 153.948 137.6ZM113.067 141.463H112.888L110.013 146.034H107.823L111.967 139.98L107.778 133.927H110.08L112.955 138.431H113.135L115.976 133.927H118.166L114.056 139.902L118.222 146.034H115.931L113.067 141.463ZM70.8394 144.585V146H80.1607V144.383H73.1753V144.203L80.127 135.342V133.894H70.8506V135.511H77.8247V135.69L70.8394 144.585ZM303.555 79.8936L298.299 85.1831H298.119V75.0869H296.188V92H298.119V87.4067L299.276 86.3286L303.813 92H306.272L300.713 85.082L305.924 79.8936H303.555ZM220.104 75.0869V92H222.035V84.835C222.035 82.791 223.226 81.4209 225.393 81.4209C227.224 81.4209 228.189 82.4878 228.189 84.6328V92H230.121V84.1611C230.121 81.3198 228.504 79.6802 225.943 79.6802C224.09 79.6802 222.821 80.4663 222.215 81.8027H222.035V75.0869H220.104ZM193.188 92.2134C193.188 94.9199 191.1 96.6494 187.798 96.6494C184.878 96.6494 183.014 95.3354 182.722 93.3364H184.766C184.979 94.3247 186.057 94.9648 187.798 94.9648C189.965 94.9648 191.257 93.8979 191.257 92.1123V89.7314H191.077C190.313 91.0679 188.943 91.8203 187.281 91.8203C184.148 91.8203 182.205 89.3945 182.205 85.7671C182.205 82.1396 184.17 79.6802 187.281 79.6802C188.977 79.6802 190.471 80.5112 191.167 81.814H191.347V79.8936H193.188V92.2134ZM184.204 85.7671C184.204 88.4062 185.462 90.1133 187.708 90.1133C189.954 90.1133 191.302 88.4062 191.302 85.7671C191.302 83.1279 189.943 81.4209 187.708 81.4209C185.462 81.4209 184.204 83.1279 184.204 85.7671ZM148.967 81.5107V92H150.899V81.5107H153.673V79.8936H150.899V78.6021C150.899 77.2769 151.483 76.603 152.875 76.603C153.223 76.603 153.549 76.6143 153.785 76.6592V75.0869C153.381 75.0083 152.954 74.9746 152.482 74.9746C150.18 74.9746 148.967 76.1313 148.967 78.5459V79.8936H146.957V81.5107H148.967ZM116.111 90.0684C115.347 91.416 113.91 92.2134 112.236 92.2134C109.137 92.2134 107.149 89.7539 107.149 85.9468C107.149 82.1509 109.159 79.6802 112.236 79.6802C113.921 79.6802 115.347 80.4775 116.032 81.8027H116.201V75.0869H118.132V92H116.291V90.0684H116.111ZM116.246 85.9468C116.246 83.1729 114.876 81.4209 112.686 81.4209C110.484 81.4209 109.148 83.1279 109.148 85.9468C109.148 88.7769 110.473 90.4727 112.686 90.4727C114.887 90.4727 116.246 88.7432 116.246 85.9468ZM76.0337 79.6802C73.4619 79.6802 71.5191 81.1963 71.5191 83.2065C71.5191 84.9585 72.5523 85.9355 74.8208 86.4858L76.8985 86.9912C78.19 87.3057 78.8189 87.8672 78.8189 88.6982C78.8189 89.8101 77.6509 90.585 76.0225 90.585C74.4727 90.585 73.5069 89.9336 73.1812 88.9116H71.1934C71.4068 90.9219 73.2598 92.2134 75.9551 92.2134C78.7066 92.2134 80.8067 90.7197 80.8067 88.5522C80.8067 86.8115 79.7061 85.8232 77.4263 85.2729L75.562 84.8237C74.1358 84.4756 73.4619 83.959 73.4619 83.1279C73.4619 82.0498 74.585 81.3198 76.0225 81.3198C77.4824 81.3198 78.4258 81.96 78.6841 82.9258H80.5933C80.335 80.938 78.5718 79.6802 76.0337 79.6802ZM41.0718 90.2144C40.2857 91.5059 38.9605 92.2134 37.3433 92.2134C34.9961 92.2134 33.2554 90.8208 33.2554 88.6084C33.2554 86.4409 34.8501 85.1943 37.669 85.0259L41.1616 84.8125V83.7119C41.1616 82.2183 40.2295 81.3984 38.4214 81.3984C36.9727 81.3984 35.9619 81.9487 35.6924 82.9033H33.7383C33.9966 80.9604 35.9058 79.6802 38.4888 79.6802C41.4424 79.6802 43.0933 81.1963 43.0933 83.7119V92H41.2515V90.2144H41.0718ZM35.2544 88.5635C35.2544 89.7988 36.2988 90.5176 37.7027 90.5176C39.6904 90.5176 41.1616 89.2148 41.1616 87.4854V86.3735L37.9048 86.5869C36.063 86.7104 35.2544 87.3506 35.2544 88.5635ZM324.082 31.9468C324.082 35.8325 321.948 38.2134 318.5 38.2134C315.052 38.2134 312.918 35.8325 312.918 31.9468C312.918 28.0498 315.052 25.6802 318.5 25.6802C321.948 25.6802 324.082 28.0498 324.082 31.9468ZM314.918 31.9468C314.918 34.8105 316.209 36.4727 318.5 36.4727C320.791 36.4727 322.083 34.8105 322.083 31.9468C322.083 29.0718 320.791 27.4209 318.5 27.4209C316.209 27.4209 314.918 29.0718 314.918 31.9468ZM248.396 25.8936V38H246.555V36.1021H246.375C245.769 37.4497 244.477 38.2134 242.624 38.2134C239.906 38.2134 238.491 36.5962 238.491 33.7324V25.8936H240.423V33.2607C240.423 35.4395 241.231 36.4502 243.163 36.4502C245.297 36.4502 246.465 35.1812 246.465 33.0586V25.8936H248.396ZM202.244 42.3125C202.513 42.3574 202.85 42.3799 203.108 42.3799C205.253 42.3799 206.219 41.5488 207.252 38.7412L211.98 25.8936H209.925L206.612 35.855H206.433L203.108 25.8936H201.02L205.501 38.0112L205.276 38.73C204.771 40.1899 204.164 40.7178 203.052 40.7178C202.783 40.7178 202.48 40.7065 202.244 40.6616V42.3125ZM167.45 22.7603H169.382V25.8936H172.077V27.5107H169.382V34.3613C169.382 35.7876 169.921 36.394 171.179 36.394C171.527 36.394 171.718 36.3828 172.077 36.3491V37.9775C171.695 38.0449 171.325 38.0898 170.943 38.0898C168.45 38.0898 167.45 37.1689 167.45 34.8555V27.5107H165.496V25.8936H167.45V22.7603ZM128.939 25.8936V38H130.871V30.498C130.871 28.791 132.208 27.5557 134.049 27.5557C134.431 27.5557 135.127 27.623 135.285 27.668V25.7363C135.038 25.7026 134.633 25.6802 134.319 25.6802C132.713 25.6802 131.32 26.5112 130.961 27.6904H130.781V25.8936H128.939ZM93.646 36.5063C95.207 36.5063 96.2627 35.9336 96.7681 34.8667H98.6997C98.1382 36.9331 96.2515 38.2134 93.6011 38.2134C90.2432 38.2134 88.1431 35.7876 88.1431 31.958C88.1431 28.1509 90.2769 25.6802 93.6011 25.6802C96.8692 25.6802 98.8569 28.0049 98.8569 31.7671V32.5083H90.1533V32.5981C90.2544 34.9902 91.5908 36.5063 93.646 36.5063ZM96.8242 30.9473C96.7793 28.8022 95.499 27.3872 93.5786 27.3872C91.647 27.3872 90.2993 28.8022 90.1533 30.9473H96.8242ZM61.2505 38L64.6421 25.8936H62.6992L60.3184 35.5742H60.1387L57.4321 25.8936H55.5791L52.8726 35.5742H52.6929L50.312 25.8936H48.3579L51.7495 38H53.7036L56.3989 28.6338H56.5786L59.2852 38H61.2505ZM13.7051 31.9468C13.7051 28.1509 15.7041 25.6802 18.77 25.6802C20.4209 25.6802 21.9258 26.5562 22.6445 27.915H22.8242V25.8936H24.6885V42.043H22.7344V36.1807H22.5547C21.7798 37.5059 20.4771 38.2134 18.77 38.2134C15.6817 38.2134 13.7051 35.7651 13.7051 31.9468ZM15.7041 31.9468C15.7041 34.7881 17.0069 36.4727 19.208 36.4727C21.4204 36.4727 22.7905 34.7319 22.7905 31.9468C22.7905 29.1729 21.4092 27.4209 19.2193 27.4209C17.0181 27.4209 15.7041 29.1167 15.7041 31.9468ZM32.0554 140.866C33.0538 140.867 33.4025 140.011 32.6978 139.306L24.3313 130.94C23.7434 130.352 22.795 130.354 22.2077 130.942L13.8751 139.274C13.167 139.982 13.5161 140.837 14.5142 140.838L18.1448 140.844V144.525C18.1448 145.904 19.2631 147.024 20.6422 147.024H25.6474C27.0257 147.024 28.1448 145.905 28.1448 144.525V140.86L32.0554 140.866ZM22.9148 131.649C23.1123 131.451 23.4276 131.45 23.6242 131.647L31.8426 139.865L27.1448 139.858V144.525C27.1448 145.352 26.4733 146.024 25.6474 146.024H20.6422C19.8157 146.024 19.1448 145.352 19.1448 144.525V139.846L14.7248 139.839L22.9148 131.649Z" fill="#030303"/>
<path fill-rule="evenodd" clip-rule="evenodd" d="M51 253.25C51 245.932 45.0678 240 37.75 240C30.4322 240 24.5 245.932 24.5 253.25C24.5 260.568 30.4322 266.5 37.75 266.5C45.0678 266.5 51 260.568 51 253.25ZM49.455 253.251C49.4555 246.786 44.2151 241.544 37.75 241.544C34.6451 241.543 31.6672 242.777 29.4716 244.972C27.2759 247.167 26.0424 250.145 26.0423 253.25C26.0423 259.715 31.2832 264.956 37.7482 264.956C44.2133 264.957 49.4546 259.716 49.455 253.251ZM32.4635 247.946C32.7544 247.657 33.1488 247.498 33.5584 247.503C33.9679 247.498 34.3623 247.657 34.6532 247.946C34.9442 248.234 35.1074 248.627 35.1063 249.036C35.1063 249.891 34.4133 250.584 33.5584 250.584C32.7035 250.584 32.0104 249.891 32.0104 249.036C32.0093 248.627 32.1725 248.234 32.4635 247.946ZM37.7483 262.528C42.1947 262.528 45.8746 259.345 46.5801 255.532C46.6676 254.661 45.912 254.459 45.2064 254.638C42.7836 255.337 40.2715 255.677 37.75 255.648C35.2228 255.678 32.7049 255.337 30.277 254.635C29.5512 254.459 28.7807 254.681 28.9321 255.622C29.6791 259.391 33.3374 262.528 37.7483 262.528ZM44.1579 256.072C44.1669 256.069 44.1759 256.066 44.1849 256.062C45.4095 255.622 45.2598 256.927 44.5025 257.414C42.9023 258.232 40.4795 258.865 37.7606 258.865C35.4749 258.891 33.2114 258.414 31.131 257.467C30.3177 257.049 30.0958 255.688 31.2529 256.032C32.8488 256.606 35.1679 256.894 37.7609 256.894C39.9211 256.919 42.0742 256.642 44.1579 256.072ZM44.1579 256.072C44.1191 256.086 44.08 256.099 44.0407 256.111C44.019 256.118 43.9973 256.125 43.9755 256.132C43.972 256.133 44.0254 256.116 44.0804 256.099C44.1384 256.08 44.198 256.061 44.1945 256.062C44.1823 256.066 44.1701 256.069 44.1579 256.072ZM40.8553 247.946C41.1462 247.657 41.5407 247.498 41.9503 247.503C42.3598 247.498 42.7541 247.658 43.045 247.946C43.336 248.234 43.4992 248.627 43.4982 249.036C43.5064 249.595 43.2131 250.115 42.7307 250.396C42.2484 250.678 41.6518 250.678 41.1694 250.396C40.6871 250.115 40.3938 249.595 40.402 249.036C40.401 248.627 40.5643 248.234 40.8553 247.946ZM331.667 252.167C331.667 251.706 331.294 251.333 330.833 251.333C330.373 251.333 330 251.706 330 252.167C330 252.202 330.002 252.236 330.006 252.27V254.18C330.006 254.195 330.005 254.21 330.003 254.226C330.002 254.244 330 254.263 330 254.283C329.995 258.118 332.867 261.347 336.677 261.79V264.323H333.53V264.334C333.52 264.334 333.51 264.333 333.5 264.333C333.04 264.333 332.667 264.706 332.667 265.167C332.667 265.627 333.04 266 333.5 266C333.51 266 333.52 266 333.53 265.999V266H341.467V265.999C341.478 266 341.489 266 341.5 266C341.96 266 342.333 265.627 342.333 265.167C342.333 264.706 341.96 264.333 341.5 264.333C341.489 264.333 341.478 264.334 341.467 264.334V264.323H338.327V261.79C342.128 261.337 344.989 258.112 344.987 254.283H344.987H344.997V252.238C344.999 252.214 345 252.191 345 252.167C345 251.706 344.627 251.333 344.167 251.333C343.706 251.333 343.333 251.706 343.333 252.167L343.333 252.177L343.327 252.177V254.953H343.307C343.06 257.918 340.634 260.229 337.66 260.33H337.324C334.351 260.227 331.926 257.917 331.678 254.953H331.663V254.64C331.663 254.626 331.662 254.611 331.661 254.597C331.659 254.581 331.658 254.566 331.658 254.55V254.543H331.663V252.249C331.665 252.222 331.667 252.194 331.667 252.167ZM341.967 254.417C341.993 253.913 341.993 253.383 341.993 252.88H341.994V248.667C341.994 248.536 341.996 248.298 341.999 248.007C342.006 247.187 342.016 245.955 341.994 245.583C341.964 245.129 341.886 244.678 341.761 244.24C341.227 242.326 339.484 241.003 337.497 241.003C335.51 241.003 333.767 242.326 333.233 244.24C333.092 244.674 333.013 245.127 333 245.583C333.002 245.859 333.001 247.137 333 247.988C333 248.289 333 248.536 333 248.667V252.88L333 252.997C333 253.465 333 253.952 333.026 254.417C333.046 254.871 333.115 255.321 333.233 255.76C333.492 256.683 334.048 257.494 334.817 258.067C336.388 259.307 338.605 259.307 340.177 258.067C340.943 257.492 341.499 256.682 341.76 255.76C341.877 255.321 341.946 254.871 341.967 254.417ZM340.3 254.413C340.32 254.093 340.327 253.987 340.327 253.667C340.327 251.809 340.331 250.16 340.335 248.843C340.34 247.007 340.344 245.815 340.33 245.593C340.308 245.302 340.255 245.013 340.17 244.733C340.01 244.143 339.663 243.621 339.18 243.247C338.191 242.478 336.806 242.478 335.817 243.247C335.332 243.62 334.983 244.143 334.823 244.733C334.747 245.015 334.699 245.303 334.68 245.593C334.663 245.825 334.665 247.313 334.669 249.558C334.671 250.742 334.673 252.136 334.673 253.667C334.673 253.987 334.677 254.093 334.693 254.413C334.706 254.704 334.75 254.992 334.823 255.273C334.983 255.864 335.332 256.386 335.817 256.76C336.806 257.529 338.191 257.529 339.18 256.76C339.663 256.385 340.01 255.863 340.17 255.273C340.245 254.992 340.289 254.704 340.3 254.413Z" fill="#50555C"/>
</g>
<path d="M252.5 277H123.5C122.119 277 121 278.119 121 279.5C121 280.881 122.119 282 123.5 282H252.5C253.881 282 255 280.881 255 279.5C255 278.119 253.881 277 252.5 277Z" fill="#1B1E21"/>
<defs>
<filter id="filter0_b_20_4173" x="-27.1828" y="-27.1828" width="429.366" height="345.366" filterUnits="userSpaceOnUse" color-interpolation-filters="sRGB">
<feFlood flood-opacity="0" result="BackgroundImageFix"/>
<feGaussianBlur in="BackgroundImageFix" stdDeviation="13.5914"/>
<feComposite in2="SourceAlpha" operator="in" result="effect1_backgroundBlur_20_4173"/>
<feBlend mode="normal" in="SourceGraphic" in2="effect1_backgroundBlur_20_4173" result="shape"/>
</filter>
<filter id="filter1_d_20_4173" x="284" y="170" width="88" height="43" filterUnits="userSpaceOnUse" color-interpolation-filters="sRGB">
<feFlood flood-opacity="0" result="BackgroundImageFix"/>
<feColorMatrix in="SourceAlpha" type="matrix" values="0 0 0 0 0 0 0 0 0 0 0 0 0 0 0 0 0 0 127 0" result="hardAlpha"/>
<feOffset dy="1"/>
<feColorMatrix type="matrix" values="0 0 0 0 0 0 0 0 0 0 0 0 0 0 0 0 0 0 0.25 0"/>
<feBlend mode="normal" in2="BackgroundImageFix" result="effect1_dropShadow_20_4173"/>
<feBlend mode="normal" in="SourceGraphic" in2="effect1_dropShadow_20_4173" result="shape"/>
</filter>
<filter id="filter2_d_20_4173" x="3" y="118" width="369" height="95" filterUnits="userSpaceOnUse" color-interpolation-filters="sRGB">
<feFlood flood-opacity="0" result="BackgroundImageFix"/>
<feColorMatrix in="SourceAlpha" type="matrix" values="0 0 0 0 0 0 0 0 0 0 0 0 0 0 0 0 0 0 127 0" result="hardAlpha"/>
<feOffset dy="1"/>
<feColorMatrix type="matrix" values="0 0 0 0 0 0 0 0 0 0 0 0 0 0 0 0 0 0 0.25 0"/>
<feBlend mode="normal" in2="BackgroundImageFix" result="effect1_dropShadow_20_4173"/>
<feBlend mode="normal" in="SourceGraphic" in2="effect1_dropShadow_20_4173" result="shape"/>
</filter>
<filter id="filter3_d_20_4173" x="3" y="10" width="369" height="203" filterUnits="userSpaceOnUse" color-interpolation-filters="sRGB">
<feFlood flood-opacity="0" result="BackgroundImageFix"/>
<feColorMatrix in="SourceAlpha" type="matrix" values="0 0 0 0 0 0 0 0 0 0 0 0 0 0 0 0 0 0 127 0" result="hardAlpha"/>
<feOffset dy="1"/>
<feColorMatrix type="matrix" values="0 0 0 0 0 0 0 0 0 0 0 0 0 0 0 0 0 0 0.35 0"/>
<feBlend mode="normal" in2="BackgroundImageFix" result="effect1_dropShadow_20_4173"/>
<feBlend mode="normal" in="SourceGraphic" in2="effect1_dropShadow_20_4173" result="shape"/>
</filter>
<clipPath id="clip0_20_4173">
<rect width="375" height="291" fill="white"/>
</clipPath>
</defs>
</svg>
